<svg version="1.2" xmlns="http://www.w3.org/2000/svg" viewBox="0 0 750 500" width="3000" height="2000">
	<title>5127311-ai</title>
	<defs>
		<clipPath clipPathUnits="userSpaceOnUse" id="cp1">
			<path d="m291.04 159.03c0 39.68-32.17 71.85-71.85 71.85-39.68 0-71.85-32.17-71.85-71.85 0-39.68 32.17-85.8 71.85-85.8 39.68 0 71.85 46.12 71.85 85.8z"/>
		</clipPath>
	</defs>
	<style>
		tspan { white-space:pre } 
		.s0 { fill: #160f29 } 
		.s1 { fill: #bdcae0 } 
		.s2 { fill: #cddcf4 } 
		.s3 { fill: #b0bdd1 } 
		.s4 { fill: #dbe9ff } 
		.s5 { fill: #f6a397 } 
		.s6 { fill: #d65863 } 
		.s7 { fill: #5470d3 } 
		.s8 { fill: #314ec6 } 
		.s9 { fill: #504984 } 
		.s10 { fill: #372d5b } 
		.s11 { fill: #ba6454 } 
		.s12 { fill: #874438 } 
		.s13 { fill: #3f1751 } 
		.s14 { fill: #ba5e5b } 
		.s15 { fill: #ffa6a4 } 
		.s16 { fill: #e67471 } 
		.s17 { fill: #282142 } 
		.s18 { fill: #7f74d1 } 
		.s19 { fill: #8e5058 } 
		.s20 { fill: #64364a } 
		.s21 { fill: #ffc5c7 } 
		.s22 { fill: #dcedff } 
		.s23 { fill: #fe8a8b } 
		.s24 { fill: #0c0835 } 
		.s25 { fill: #252384 } 
		.s26 { fill: #57aff7 } 
		.s27 { fill: #c31f2a } 
		.s28 { fill: #fb8384 } 
		.t29 { font-size: 20px;fill: #d1c8d9;font-weight: 400;font-family: "BebasKai", "Bebas Kai" } 
	</style>
	<g id="BACKGROUND">
		<g id="&lt;Group&gt;">
			<path id="&lt;Path&gt;" class="s0" d="m750 500h-750v-500h750z"/>
		</g>
	</g>
	<g id="OBJECTS">
		<g id="&lt;Group&gt;">
			<path id="&lt;Path&gt;" class="s1" d="m709.7 376.7c-26 39.5-70.6 62.7-117.9 62.7h-392.2c-78.9 0-123.1-92.2-72-144.1 51.2-51.9 6-96.3 84.9-137.9 76.4-40.3 102.5 45.6 172.9-10.6 70.4-56.2 172.8-50.9 195.3 6.4 22.6 57.3 17.3 77.4 65 90.2 47.8 12.7 94.5 84.9 65.8 130.5q-0.9 1.4-1.8 2.8z"/>
		</g>
		<g id="&lt;Group&gt;">
			<g id="&lt;Group&gt;">
				<g id="&lt;Group&gt;">
					<path id="&lt;Path&gt;" class="s2" d="m692.3 392.7c-41.4 3.5-69.2 81-172.5 34.4q11.3-33.8 62.1-54.9 50.8-21 110.4 20.5z"/>
				</g>
				<g id="&lt;Group&gt;">
					<path id="&lt;Path&gt;" class="s3" d="m533.9 421.3c10.8-5.6 21.9-10.4 33.4-14.6 2.8-1.1 5.7-2.1 8.6-3.1 2.9-1 5.8-1.8 8.7-2.7 2.9-1 5.8-1.7 8.8-2.5 1.5-0.4 2.9-0.8 4.4-1.2l4.5-1.1 4.4-1 4.5-0.9 4.5-0.9c1.5-0.3 3-0.5 4.5-0.7 3-0.5 6.1-1 9.1-1.2 3-0.4 6.1-0.8 9.1-0.9 12.2-0.9 24.5-0.7 36.5 1.3-12.2-0.3-24.2 0.5-36.2 1.9l-2.2 0.3-2.2 0.3-4.5 0.7c-3 0.4-6 1-8.9 1.5-1.5 0.3-3 0.5-4.5 0.8l-4.4 0.9-4.4 0.9-4.4 1.1-4.4 1c-1.5 0.3-2.9 0.7-4.4 1.1l-4.4 1.1c-1.4 0.4-2.9 0.9-4.3 1.3-2.9 0.7-5.8 1.5-8.7 2.4-2.9 0.9-5.8 1.7-8.7 2.6-11.5 3.6-23 7.6-34.4 11.6z"/>
				</g>
			</g>
			<g id="&lt;Group&gt;">
				<g id="&lt;Group&gt;">
					<path id="&lt;Path&gt;" class="s4" d="m697.3 260.9c-50.4 36-27.1 156.8-195.3 175.8q-11.3-52.1 37.9-117.9 49.2-65.9 157.4-57.9z"/>
				</g>
				<g id="&lt;Group&gt;">
					<path id="&lt;Path&gt;" class="s2" d="m513.1 422.2c7.4-15.9 16.4-31 26.6-45.3 10.2-14.4 21.6-27.9 34-40.4 12.4-12.5 25.9-24 40.4-33.9 14.6-9.9 30.2-18.5 46.9-23.8-15.5 8.1-29.8 17.8-43.5 28.4-13.6 10.7-26.4 22.2-38.6 34.5-12.2 12.2-23.7 25.2-34.6 38.6-10.9 13.5-21.2 27.5-31.2 41.9z"/>
				</g>
			</g>
			<g id="&lt;Group&gt;">
				<g id="&lt;Group&gt;">
					<path id="&lt;Path&gt;" class="s2" d="m264.9 369.3q49.2 24.6 58.1 59.1c-106.3 39.2-128.6-40-169.6-46.4q62.3-37.3 111.5-12.7z"/>
				</g>
				<g id="&lt;Group&gt;">
					<path id="&lt;Path&gt;" class="s3" d="m309.4 421.6c-11.2-4.8-22.3-9.5-33.6-13.9-2.8-1.2-5.6-2.2-8.4-3.3-2.8-1.1-5.7-2-8.5-3-1.5-0.5-2.9-1.1-4.3-1.5l-4.3-1.5c-1.4-0.5-2.8-1-4.3-1.4l-4.3-1.3-4.3-1.4-4.3-1.2-4.4-1.2c-1.4-0.4-2.9-0.8-4.4-1.2-2.9-0.7-5.8-1.5-8.7-2.1l-4.5-1-2.2-0.5-2.2-0.4c-11.8-2.3-23.8-3.8-35.9-4.4 12.1-1.2 24.4-0.5 36.5 1.2 3 0.3 6 1 9 1.5 3 0.5 6 1.2 9 1.9 1.5 0.3 2.9 0.7 4.4 1.1l4.4 1.2 4.5 1.2 4.3 1.3 4.4 1.4c1.4 0.4 2.9 1 4.3 1.5 2.9 1 5.8 1.9 8.6 3.1 2.9 1.1 5.7 2.1 8.5 3.3 2.8 1.2 5.6 2.4 8.4 3.7 11.1 5 21.9 10.6 32.3 16.9z"/>
				</g>
			</g>
			<g id="&lt;Group&gt;">
				<g id="&lt;Group&gt;">
					<path id="&lt;Path&gt;" class="s4" d="m326 320.8q42.3 65.7 28.1 114.4c-158.3-29.3-128.1-142.3-173.5-179.8q103.2-0.4 145.4 65.4z"/>
				</g>
				<g id="&lt;Group&gt;">
					<path id="&lt;Path&gt;" class="s2" d="m344.5 420.6c-8.6-14.3-17.4-28.2-26.8-41.7-9.5-13.5-19.5-26.5-30.3-38.9-10.7-12.4-22.1-24.2-34.3-35.3-12.2-11-25.1-21.1-39.3-29.9 15.6 6.1 29.9 15.2 43 25.6 13.2 10.3 25.2 22.1 36.1 34.8 11 12.7 20.9 26.3 29.5 40.6 8.7 14.3 16.3 29.2 22.1 44.8z"/>
				</g>
			</g>
		</g>
		<g id="&lt;Group&gt;">
			<g id="&lt;Group&gt;">
				<g id="&lt;Group&gt;">
					<path id="&lt;Path&gt;" class="s5" d="m467 381.8l-11 9.8q-4.4 15.3-15.4 21.6-25.8 2.2-20.7-14.2c5.1-16.4 10.5-17 13.7-18.8 3.2-1.7 8.4-12.9 14.1-19.7z"/>
				</g>
				<path id="&lt;Path&gt;" class="s6" d="m427.8 411.4q8.3-2.7 15.3-10.2 7.1-7.5 8-20.8l3.4 6.4 6.8-7.3 3.3-0.3 2.4 2.6-11 9.8q-4.4 15.3-15.4 21.6-7.1 0.6-13.1-1.2 0.1-0.4 0.3-0.6z"/>
				<g id="&lt;Group&gt;">
					<path id="&lt;Path&gt;" class="s7" d="m497.1 317.7c5 9.7 8.7 38.4-2.1 46.5q-10.7 8.1-29.2 29.5c-12.3-6.5-27.7-33.1-26.1-35.6 1.5-2.5 26.1-30.7 30-38.5 3.9-7.9 8.6-12 16.5-17.8q6 6.3 10.9 15.9z"/>
				</g>
				<path id="&lt;Path&gt;" class="s8" d="m485.9 353.6v-16q2.1-0.8 3.7 4.6c0.7 2.2 0.6 4.4 0.3 6.4l12-9c0.5 10.1-1.1 20.3-6.9 24.6q-10.7 8.1-29.2 29.5c-3.2-1.6-6.6-4.7-9.8-8.3 7.5-7.5 21.9-22 29.9-31.8z"/>
				<g id="&lt;Group&gt;">
					<path id="&lt;Path&gt;" class="s5" d="m412 409.3q1.1 1.9 1.4 12.6-5-1-6-2.6c-1-1.6-1.4-5.7-1.4-8.2 0-2.6 1.5-3.6 3.6-4.2q1.4 0.4 2.4 2.4z"/>
				</g>
				<path id="&lt;Path&gt;" class="s6" d="m407.4 419.3c-0.3-0.4-0.5-1.1-0.7-1.8 1.1 1 1.5 1 2.8 1.2l3.9 1.2q0 1.2 0 2-5-1-6-2.6z"/>
				<g id="&lt;Group&gt;">
					<path id="&lt;Path&gt;" class="s5" d="m419.9 422.3c0.4 0.8-2.2 1.3-3.7 1-1.5-0.2-5.8-3.5-6.7-4.7-0.9-1.1 0-8.3 0-10.9 0-2.6 2.4-4.5 4.9-4.7q5.2 18.5 5.5 19.3z"/>
				</g>
				<path id="&lt;Path&gt;" class="s6" d="m409.1 416.7q1.9 2.1 6.7 1.9 2.1 2.3 2.4 3c0.1 0.4 1 1 1.1 1.5-0.8 0.3-2.1 0.4-3.1 0.2-1.5-0.2-5.7-3.4-6.7-4.6l-0.4-2q0 0 0 0z"/>
				<g id="&lt;Group&gt;">
					<path id="&lt;Path&gt;" class="s5" d="m425.5 413q-0.1 5.2-4.3 11.3-1.9 0-3.1-1.2c-1.3-1.3-1.8-3.3-2.8-5.6-1-2.4-1.1-11.4-0.9-14.5 0.3-3.1 1.7-3.8 9.4-4.3q1.9 9.2 1.7 14.3z"/>
				</g>
				<path id="&lt;Path&gt;" class="s6" d="m419.4 419.2c0.4-2.1 1.2-4.4 1.3-11.4 0.1-2.7 2.5 11.2 1.4 15q-0.5 0.9-0.9 1.5-1.9 0-3.1-1.2c-1.3-1.3-1.8-3.3-2.8-5.6q-0.1-0.3-0.2-0.6c0.5 1.3 2.1 2.2 4.3 2.3z"/>
				<g id="&lt;Group&gt;">
					<path id="&lt;Path&gt;" class="s5" d="m440.5 414.4c-0.5 4.2-6.1 5.7-6.7 7.9-0.6 2.1-0.2 4-1.2 4.6-1.1 0.5-5.6-2-5.4-4.8q-1.1 2.4-3.7 2.8c-2.6 0.5-3.2-1.4-2.8-4.3 0.5-2.8 0.4-4.3 0.3-7.7-0.1-3.3-0.9-6.5 0.6-10.2 1.5-3.7 3.6-7 7.7-6.4 4.1 0.6 6.5 5.8 8.8 7.6 2.2 1.7 2.9 5.7 2.4 10.5z"/>
				</g>
				<path id="&lt;Path&gt;" class="s6" d="m427.2 422.1c0.3-5.4 0.6-9.8 0.6-10.7 0-0.9-0.3-6.6 1.7-7 0.3 0 4.8 2.8 4.9 4.7 0.1 2 0 5.4-1.4 6.4q-1.4 1-5.8 6.6z"/>
			</g>
			<g id="&lt;Group&gt;">
				<g id="&lt;Group&gt;">
					<path id="&lt;Path&gt;" class="s7" d="m601.8 348c-1.8 14.6-5.3 86-6.7 88q-1.3 2.1-100.8 1.9-4.6-44.7-4.6-64.5c-0.1-38-12.5-56.1-6.2-68.9 1.9-3.8 12.8-7.6 21.5-11.6 8.6-3.9 35-16.2 41.5-14.6 6.5 1.6 38.2 13.9 46.6 18.8 8.3 4.9 11.1 5.9 19.2 16.2q-8.8 20-10.5 34.7z"/>
				</g>
				<g id="&lt;Group&gt;">
					<path id="&lt;Path&gt;" class="s8" d="m483.8 324.5c-0.7-2.4-1.1-4.8-1.5-7.3-0.4-2.4-0.6-4.9-0.6-7.4 0.8 2.4 1.2 4.8 1.6 7.3 0.3 2.4 0.6 4.9 0.5 7.4z"/>
				</g>
				<g id="&lt;Group&gt;">
					<path id="&lt;Path&gt;" class="s8" d="m521.1 309.6c-3.9-1.5-13 1-14.7 1.6-1.6 0.6 1-6.5 2-7.4 1-0.9 2.5-2.9 5.5-2 3 0.9 5.6 4.4 6 5.5q0.4 1.1 1.2 2.3z"/>
				</g>
				<g id="&lt;Group&gt;">
					<path id="&lt;Path&gt;" class="s8" d="m553.1 315.5c-1.4 0-9.4-3.7-11.3-4.6-1.9-0.9-10.6-1.4-16.4 0.3q11.2-7.6 17.7-7.6c6.6 0.1 9 2.5 9.6 4.5q0.5 2.1 0.4 7.4z"/>
				</g>
				<g id="&lt;Group&gt;">
					<path id="&lt;Path&gt;" class="s8" d="m510.3 421.9c1.1-1 66.1 1.1 67.4-5.7q1.3-6.8 2.2-19.1-7.9 4.1-19.2 2.4c7.6-2.5 18.5-14.9 19.1-18.6q1.6-11.2-4.5-42.3l4.5-8.8 5.1-2.9q9.8 4.9 18.2 13.8c-0.6 2.5-1.1 4.9-1.3 7.3-1.7 13.7-4.9 78-6.4 87-20.1 0.8-56.6 2.1-81 2.9q-11.8 0.1-20.1 0-0.2-5.8-0.5-14.3c6.8-0.4 15.9-1 16.5-1.7z"/>
				</g>
				<g id="&lt;Group&gt;">
					<path id="&lt;Path&gt;" class="s7" d="m513.8 303c-3 0.3-7 8.6-8.4 8.5-1.5-0.2 1.7-12.9 2.8-16.1 1.2-3.2 3-6.5 7.3-9.8 4.4-3.2 25.8-11.3 34-9.8 8.3 1.6 8 13.1 8 24.3 0 11.2-4 15.8-4.9 14.9-0.9-0.9-1.9-6.3-6.4-8.4-4.4-2-15.7 4-22.7 4.9-1.9 0.2-6.7-8.8-9.7-8.5z"/>
				</g>
				<path id="&lt;Path&gt;" class="s8" d="m519.5 301.4c-1.8-4.2-3.7-7.9-3.7-10.9 0.1-2.9 0.8-4.9 4-5.9 3.3-0.9 4.7 0.9 4.9 5.3q0.1 4.5-5.2 11.5z"/>
				<path id="&lt;Path&gt;" class="s8" d="m548.2 282.1q-0.7-1.1 0.4-5.6 2.8 1 3.5 2.5c0.6 1.4-0.2 8.3-7 14.5q3.7-10.3 3.1-11.4z"/>
				<g id="&lt;Group&gt;">
					<path id="&lt;Path&gt;" class="s8" d="m534.3 308.5c1.6-0.8 3.3-1.4 5.1-1.8 1.8-0.5 3.6-0.8 5.5-0.7 1 0.1 2 0.3 2.8 1 0.7 0.6 1.3 1.3 1.9 2 1.3 1.4 2.1 3.1 2.9 4.7 0.2 0.4 0.5 0.8 0.6 0.9 0 0 0 0 0.1-0.1q0.2-0.1 0.4-0.4c0.5-0.6 0.9-1.4 1.3-2.2 0.9-1.6 1.3-3.3 1.7-5.1 0.3-1.7 0.5-3.5 0.6-5.4 0.2-1.8 0.2-3.6 0.3-5.4 0.3 3.6 0.3 7.3-0.2 11-0.2 1.8-0.7 3.6-1.5 5.3-0.4 0.8-0.8 1.7-1.4 2.4-0.2 0.2-0.4 0.4-0.6 0.6q-0.2 0.2-0.5 0.3c-0.2 0-0.4 0-0.6-0.1-0.4-0.2-0.6-0.5-0.7-0.7q-0.2-0.3-0.4-0.6c-0.8-1.7-1.6-3.3-2.7-4.6-0.5-0.7-1.2-1.4-1.8-2-0.6-0.5-1.4-0.7-2.3-0.8-1.7-0.2-3.5 0-5.3 0.3-1.8 0.4-3.5 0.8-5.2 1.4z"/>
				</g>
				<g id="&lt;Group&gt;">
					<path id="&lt;Path&gt;" class="s8" d="m518.2 306.1c-0.8-0.6-1.5-1.3-2.4-1.9-0.4-0.2-0.8-0.5-1.2-0.7q-0.3-0.1-0.6-0.2-0.2 0-0.3 0.1c0 0-0.1 0-0.2 0.1-1.7 1-3 2.4-4.1 4.1-0.6 0.8-1.1 1.7-1.7 2.5-0.4 0.4-0.7 0.8-1.2 1.1-0.2 0.2-0.4 0.4-0.9 0.4-0.2 0.1-0.4 0-0.6-0.2-0.2-0.1-0.3-0.3-0.3-0.5-0.2-0.6-0.1-1.1-0.1-1.6q0.1-0.8 0.3-1.5 0.3-1.5 0.9-2.9c-0.2 1-0.4 2-0.4 3q-0.1 0.7-0.1 1.4c0 0.5 0 1 0.1 1.4q0.1 0.1 0.1 0.1c0 0 0 0 0.1 0 0 0 0.2-0.1 0.4-0.3 0.3-0.2 0.6-0.6 0.9-1 0.6-0.8 1.1-1.6 1.7-2.5 0.6-0.8 1.2-1.6 2-2.4 0.7-0.7 1.6-1.3 2.5-1.8 0.1 0 0.3-0.1 0.5-0.2q0.2 0 0.5 0 0.4 0.1 0.8 0.3 0.7 0.4 1.2 1 1.2 1 2.1 2.2z"/>
				</g>
				<g id="&lt;Group&gt;">
					<path id="&lt;Path&gt;" class="s5" d="m518.7 267c0.2-8.1 5.1-20.2 13.2-20.2 8.1 0 16.6 6.2 16.7 14.3 0.2 8.1 1 15.9 1.2 16.7 1 6.1-2.1 13.4-6.7 18.1-4.6 4.6-8 4.7-10.6 7.9q-2.6 3.1-8.9 6-3.5-6.5-4.1-8.4c-0.5-1.6 0.2-10.5-0.5-17.2-0.3-2.8-0.4-5.5-0.4-8.3-0.1-2.5 0-5.6 0.1-8.9z"/>
				</g>
				<g id="&lt;Group&gt;">
					<path id="&lt;Path&gt;" class="s6" d="m548.6 261.1c0.2 8.1 1 15.9 1.2 16.7 0.3 1.9 0.2 3.9-0.2 5.9-1.8 0.3-24.9 0.9-30.8-1.9q-0.2-2.9-0.2-5.9c-0.1-2.5 0-5.6 0.1-8.9 0.1-3.5 1-7.6 2.7-11.2l18.9-6.8c4.7 2.5 8.2 6.9 8.3 12.1z"/>
				</g>
			</g>
			<g id="&lt;Group&gt;">
				<g id="&lt;Group&gt;">
					<path id="&lt;Path&gt;" class="s9" d="m516.8 243.8c0 9.1-5 16.5-12.4 16.5-14.8 0-16.9-10.1-16.9-16.5 0-7 4.6-16.4 16.9-16.4 7.4 0 12.4 7.4 12.4 16.4z"/>
				</g>
				<g id="&lt;Group&gt;">
					<path id="&lt;Path&gt;" class="s10" d="m513.2 243.8c0 6.9-3.8 12.5-9.4 12.5-11.2 0-12.7-7.7-12.7-12.5 0-5.3 3.5-12.4 12.7-12.4 5.6 0 9.4 5.6 9.4 12.4z"/>
				</g>
				<g id="&lt;Group&gt;">
					<path id="&lt;Path&gt;" class="s5" d="m521.2 195.1c18.8 0.4 27 12.3 32 25.3 5 13.1-0.9 34.4-3.6 39.8-9.5 19-37.8 23.7-41.3 23.3-3.5-0.4-9.6-10-13.4-17.3-3.8-7.3-1.2-15.8-2.2-21.5-0.9-5.8-3.1-7.5-3.8-11.8-3.8-22.7 13.5-38.1 32.3-37.8z"/>
				</g>
				<g id="&lt;Group&gt;">
					<path id="&lt;Path&gt;" class="s6" d="m502.6 254.4c1.8 0.4 3.7 0.1 5.1-1.1 0.1 0.7 0 1.5-0.5 2.1-0.5 0.6-1.6 1-2.6 1-1.1 0-2.2-0.6-2-2z"/>
				</g>
				<g id="&lt;Group&gt;">
					<path id="&lt;Path&gt;" class="s11" d="m537.9 232.9q-0.7-4.4-3.7-7-7.2-3-12.7-3.5-5.6-0.6-11.3-2.2 1.8 4.5 4.7 6.4-13.2-0.7-17.5-4.6 0.9 3.2 1.7 5.4-6.5-0.7-8.6-3.3-1.6 5.7-1.6 8.8-7.8-10.7-5.8-19.2 2-8.5 4.7-11.7-5.6 0.5-8.7 0 7.2-6.3 12.7-10.5 5.4-4.2 21.7-4.3-1.3-4.4 0.1-11.3 7 10.3 14.4 13.4c7.3 3.1 6.3 2.8 14.2 4.8 7.8 2 15.2 7 18.3 11.2 3.1 4.2 6.5 8.5 8.6 9.2q-4.9-0.7-7.4-2.7 4.1 9.2-1.3 21.1c-5.4 11.9-18.8 8.4-21.5 5.8q-2.6-2.6-1-5.8z"/>
				</g>
				<g id="&lt;Group&gt;">
					<path id="&lt;Path&gt;" class="s12" d="m538.9 238.7q-2.6-2.6-1-5.8c-0.4-2.7-1.7-4.7-2.6-5.8 1.9-11.9 1.1-24.2-2.3-35.7 2 0.8 3.2 1.2 6.1 1.9 3.6 5.5 6.3 11.6 8.2 17.8 2.4 7.8 3.5 16.3 1.3 24.3-0.6 2-1.4 4-2.4 5.8-3.4-0.2-6.2-1.4-7.3-2.5z"/>
				</g>
				<g id="&lt;Group&gt;">
					<path id="&lt;Path&gt;" class="s9" d="m542.6 228.5q1-29.7-14.6-39.2 12-1.4 18.9 10.7c7 12.1 6.5 22.4 6.3 28.2q-0.2 5.8-10.6 0.3z"/>
				</g>
				<g id="&lt;Group&gt;">
					<path id="&lt;Path&gt;" class="s9" d="m547.4 227.4c12.2 0 16.8 9.4 16.8 16.4 0 6.4-2 16.5-16.8 16.5-7.4 0-12.4-7.4-12.4-16.5 0-9 5-16.4 12.4-16.4z"/>
				</g>
				<g id="&lt;Group&gt;">
					<ellipse id="&lt;Path&gt;" class="s10" cx="552.5" cy="243.8" rx="11.7" ry="14.6"/>
				</g>
				<g id="&lt;Group&gt;">
					<ellipse id="&lt;Path&gt;" class="s9" cx="554.2" cy="243.8" rx="8.1" ry="9.9"/>
				</g>
				<g id="&lt;Group&gt;">
					<g id="&lt;Group&gt;">
						<path id="&lt;Path&gt;" class="s6" d="m515 268.5c-2.2 2.1-7.5 2.9-10.1 2.5-2.7-0.3-4.2-8.5-3.4-8.4 0.7 0.1 11.5-0.5 14.8-2.3q1 6.1-1.3 8.2z"/>
					</g>
					<g id="&lt;Group&gt;">
						<path id="&lt;Path&gt;" class="s0" d="m503.1 266c-0.1 0 0-0.1-0.1-0.1q-0.6-1.6-0.9-3.3c2.2 0 9.4-0.5 13-1.8 0.2 0.6 0.3 1.2 0.5 1.9-2.9 2.5-7.7 4.1-12.5 3.3z"/>
					</g>
				</g>
				<g id="&lt;Group&gt;">
					<ellipse id="&lt;Path&gt;" class="s13" cx="516.5" cy="240.7" rx="1.7" ry="2.7"/>
				</g>
				<g id="&lt;Group&gt;">
					<ellipse id="&lt;Path&gt;" class="s13" cx="497.4" cy="241.9" rx="1.4" ry="2.7"/>
				</g>
				<path id="&lt;Path&gt;" class="s13" d="m524 230.3c-2.4-0.7-4.9-0.9-7.3-0.7-1.2 0.1-2.3 0.5-3.5 0.7-1.2 0.2-2.3 0.5-3.7 0.7l-0.1-0.2c0.9-1.1 2-1.9 3.3-2.3 1.3-0.5 2.7-0.4 4-0.4q1.9 0.1 3.8 0.6c1.3 0.4 2.5 0.8 3.6 1.4z"/>
				<path id="&lt;Path&gt;" class="s13" d="m491.1 233.5c0.5-0.5 1.1-0.9 1.7-1.2q0.9-0.5 1.9-0.7c0.6-0.2 1.3-0.5 2-0.4 0.7 0.2 1.3 0.4 1.9 1v0.2c-0.3 0.2-0.7 0.3-1 0.5-0.3 0.1-0.6 0.1-0.9 0.2-0.6 0.2-1.2-0.1-1.8-0.1q-0.9 0.1-1.9 0.2-0.9 0.1-1.8 0.4z"/>
			</g>
			<g id="&lt;Group&gt;">
				<g id="&lt;Group&gt;">
					<path id="&lt;Path&gt;" class="s9" d="m510.3 428.4c0 0.4-0.6 1-2 1-1.4 0-40.1 0-45.3 0-5.2 0-6.4-2.1-4.9-4.7 1.6-2.6 8.2-8.3 24.6-12.3 16.3-4 25 5.3 27.6 9.5q2 3.1 0 6.5z"/>
				</g>
				<g id="&lt;Group&gt;">
					<path id="&lt;Path&gt;" class="s10" d="m457.7 425.5q1 3 35.5 1.4-3.5-4.7-7.4-4.8c-3.8-0.2-5.7 1.2-10.9 2.1q-5.2 0.9-1.4-2.1-3.6-0.8-5.1-2 8.5-2.5 12.1-3.1c3.6-0.6 12.7-0.2 13.9 0 0.9 0.1 5.1-2.3 10.2-1.1 2.8 2.1 4.7 4.4 5.7 6q2 3.1 0 6.5c0 0.4-0.6 1-2 1-1.4 0-40.1 0-45.3 0-4.7 0-6.1-1.7-5.3-3.9z"/>
				</g>
				<g id="&lt;Group&gt;">
					<path id="&lt;Path&gt;" class="s5" d="m596.9 379.4l33.4-2.4q6 12.3 9.1 28.8c3.1 16.4-2.7 24.9-12.4 24.9q-9.6 0-106.5-3.9c-14.3 5.1-24.8-3.4-27.2-5.2-2.4-1.8-7.5-2.1-9.7-1.7-2.1 0.5-7.4 5.4-11.9 4.4q-4.4-1.1 0.9-3.7-4.4 0-5-1-0.6-1.1 1.2-2.1c-2 0.2-3.8-2.5-2.3-3q1.5-0.4 9.7-4.9-2.1 0.1-4.6-0.5c-2.4-0.7-2.8-3.6-0.9-3.6 1.8 0 5.5-1.6 10.1-3 4.6-1.4 13.5-0.4 17.9 1.4 4.4 1.9 18.3 6.9 22.3 7.7 4.1 0.8 18.4-0.5 34.9-3.4q17.4-3.2 49.7-8.1z"/>
				</g>
				<g id="&lt;Group&gt;">
					<path id="&lt;Path&gt;" class="s6" d="m483.9 407c0.8-0.2 1.5-0.4 1.9-0.4q-0.8 0.2-1.9 0.4z"/>
					<path id="&lt;Path&gt;" class="s6" d="m476.2 409.6q-2.1 0.1-4.6-0.5c-0.7-0.2-1.2-0.6-1.5-1 2.7 1.2 6 0.4 7.8 0 1.2-0.3 4-0.8 6-1.1-2 0.4-4.8 1.3-7.7 2.6z"/>
				</g>
				<g id="&lt;Group&gt;">
					<path id="&lt;Path&gt;" class="s6" d="m476.7 413.5q0.3-0.1 0.5-0.2-0.2 0.1-0.5 0.2z"/>
					<path id="&lt;Path&gt;" class="s6" d="m466.5 416.5c0 0 1 0.9 3 0 1.7-0.8 5.8-2.4 7.2-3-1.8 0.8-6.6 3.5-7.9 4-0.9 0.1-1.8-0.4-2.3-1z"/>
				</g>
				<path id="&lt;Path&gt;" class="s6" d="m471.5 419.7c1.5-0.5 4.6-2.3 6.5-3.2q1.9-0.9 4.3-1-0.7 0-2.6 1-1.9 0.9-7.1 4.1-2.8 0-4.2-0.5c0 0 1.6 0 3.1-0.4z"/>
				<g id="&lt;Group&gt;">
					<path id="&lt;Path&gt;" class="s6" d="m499.1 421.8c2.7 1.7 10.8 3.9 15.6 3q4.9-0.9 5.9-4.9l1.4 4.3q67.2 1.9 80.8 1.3c13.5-0.6 34.6-0.9 37.4-9-0.8 9.4-5.9 14.2-13.2 14.2q-9.6 0-106.5-3.9c-14.3 5.1-24.8-3.4-27.2-5.2-2-1.5-5.8-2-8.3-1.8q0 0 0 0c3.7-1.3 11.3 0.3 14.1 2z"/>
				</g>
				<g id="&lt;Group&gt;">
					<path id="&lt;Path&gt;" class="s6" d="m602.8 393.5l16-3.2 1.9 7.8q-2.6 0.3-15.1 2z"/>
				</g>
				<g id="&lt;Group&gt;">
					<path id="&lt;Path&gt;" class="s7" d="m639.2 378.1c0.5 1.3 0.2 2.6-0.8 3.6-5.8 5.7-13.5 13.5-21.4 14.6-8.6 1.4-23 1.9-23.8 0-0.8-1.8-3.6-25-8.8-36.8-5.3-11.7-8.7-17.7-10-24.5-1.3-6.8 10.5-22.7 15.7-24 5.2-1.3 17.2-2.1 22.2 2.3 5 4.4 8.6 21.4 14.4 34.2 4.6 10.3 10.4 25.3 12.5 30.6z"/>
				</g>
				<g id="&lt;Group&gt;">
					<path id="&lt;Path&gt;" class="s8" d="m606.9 310.7q-2.4-0.3-4.8-0.3-2.4-0.1-4.8 0-2.4 0.1-4.7 0.5c-0.8 0.2-1.6 0.4-2.4 0.5-0.7 0.3-1.4 0.5-2.1 0.9-0.7 0.3-1.3 0.8-1.9 1.2-0.6 0.5-1.3 1-1.8 1.6-1.1 1.1-2.1 2.3-3.1 3.6q-1.4 1.9-2.6 4c-0.9 1.3-1.6 2.8-2.4 4.2 1.1-3.1 2.6-5.9 4.4-8.7 0.9-1.3 1.9-2.6 3-3.8 0.6-0.6 1.2-1.1 1.9-1.6 0.6-0.5 1.3-1 2.1-1.4 0.7-0.4 1.5-0.6 2.3-0.9 0.8-0.2 1.6-0.4 2.4-0.5 1.6-0.2 3.2-0.4 4.9-0.4 3.2 0 6.4 0.4 9.6 1.1z"/>
				</g>
				<g id="&lt;Group&gt;">
					<path id="&lt;Path&gt;" class="s8" d="m632.7 382.9c-0.1-4.1-8.9-42.4-16.7-63.7 3.3 7.3 6.4 18.9 10.7 28.3 4.6 10.3 10.4 25.3 12.5 30.6 0.5 1.3 0.2 2.6-0.8 3.6-2.2 2.1-4.7 4.6-7.4 6.9 0.2-0.2 1.7-1.8 1.7-5.7z"/>
				</g>
			</g>
		</g>
		<g id="&lt;Group&gt;">
			<g id="&lt;Group&gt;">
				<g id="&lt;Group&gt;">
					<path id="&lt;Path&gt;" class="s14" d="m212.6 339.9c0.5-3.6 3.8-6 7.3-5.3 1.5 0.3 2.9 1 3.9 2 3.4 3.4 2.3 9.3 5.2 13 0.7 0.9 1.7 1.7 2.3 2.6 2.5 3.6 0.3 8.5 1.1 12.7 1 5.2 6.4 8.7 7.4 13.9 1.2 5.5-2.8 10.6-6.5 14.8-0.4 0.4-0.8 0.9-1.4 1.1-1.1 0.5-2.3-0.2-3.1-1.1-3.3-3.5-1.8-9.1-3.4-13.6-1.7-5.1-7.2-8.3-8.6-13.5-0.9-3-0.3-6.2-0.2-9.3 0.2-4.7-1-9.5-3.2-13.6-0.7-1.2-0.9-2.5-0.8-3.7z"/>
				</g>
				<g id="&lt;Group&gt;">
					<path id="&lt;Path&gt;" class="s15" d="m232.8 397.3q-0.1-4.1-0.5-8.2c-0.2-2.8-0.5-5.5-1-8.2-0.5-2.6-1.1-5.3-2.2-7.7-2-5.2-3.6-10.5-5.3-15.7l-2.4-8c-0.5-2.7-1.1-5.4-1.5-8.1q1.3 3.9 2.8 7.8l2.4 7.9c1.6 5.2 3.2 10.5 5.2 15.6 1.2 2.5 1.8 5.3 2.3 8 0.5 2.8 0.8 5.5 1.1 8.3 0.2 2.7 0.3 5.5 0.5 8.2-0.1 2.8-0.2 5.6-0.5 8.3z"/>
					<path id="&lt;Path&gt;" class="s15" d="m219.2 349.6c0.8 0.2 1.5 0.6 2.1 1.1 0.3 0.2 0.6 0.5 0.8 0.8q0.4 0.5 1 0.7l-0.3 0.1c0.2-0.5 0.3-0.9 0.5-1.4q0.2-0.7 0.5-1.3 0.6-1.3 1.7-2.4v0.1q-0.2 1.4-0.8 2.7-0.4 0.6-0.8 1.3c-0.2 0.4-0.5 0.7-0.8 1.1l-0.1 0.2-0.1-0.1q-0.5-0.4-1-0.7c-0.3-0.1-0.7-0.3-1-0.5-0.7-0.5-1.3-1-1.7-1.7z"/>
					<path id="&lt;Path&gt;" class="s15" d="m219.9 359c0.6 0.1 1.2 0.4 1.8 0.6q0.8 0.5 1.6 1c0.5 0.4 1 0.8 1.5 1.2 0.5 0.3 1.1 0.6 1.6 0.9l-0.3 0.1c0.4-1.2 1-2.3 1.6-3.4 0.7-1 1.4-2 2.2-3l0.1 0.1c-0.4 1.2-0.9 2.3-1.5 3.4-0.6 1.1-1.2 2.1-2 3.1l-0.2 0.2-0.1-0.1c-0.5-0.4-1-0.8-1.6-1.1-0.5-0.3-1.1-0.5-1.7-0.8-0.5-0.3-1.1-0.6-1.6-1-0.5-0.3-1-0.7-1.4-1.1z"/>
					<path id="&lt;Path&gt;" class="s15" d="m223.3 371.4c0.7 0.1 1.4 0.3 2 0.5q1 0.4 1.8 1.1 0.8 0.7 1.8 1c0.7 0.2 1.4 0.4 2 0.8l-0.7 0.2q0.4-1.2 1.1-2.2c0.5-0.7 1-1.3 1.6-1.9h0.1c-0.1 0.9-0.4 1.7-0.7 2.4q-0.5 1.1-1.2 2.2l-0.3 0.4-0.5-0.2c-0.5-0.4-1.1-0.9-1.6-1.3q-0.8-0.6-1.9-0.9-1-0.2-1.9-0.7c-0.6-0.4-1.2-0.8-1.7-1.3z"/>
				</g>
			</g>
			<g id="&lt;Group&gt;">
				<g id="&lt;Group&gt;">
					<path id="&lt;Path&gt;" class="s16" d="m234.8 405c-4.5-4.6-6.2-11.9-3.8-17.9 1.9-4.7 5.9-9.1 4.8-13.9-0.4-1.8-1.6-3.4-2-5.2-1-4.6 2.7-8.6 4.5-12.9 2.4-6.1 0.9-12.9-0.1-19.4-1-6.4-1.2-13.8 3.2-18.6 1-1.3 2.4-2.3 4-2.7 2.2-0.5 4.5 0.3 6.7 1.1 6.2 2.6 12.6 8 11.6 14.6-0.7 4.9-5.3 8.5-6.2 13.3-1 4.6 1.6 9.1 3.7 13.3 2.2 4.2 3.9 9.3 1.5 13.4-2.3 3.9-7.3 5-11.4 7.2-8.4 4.4-5.9 14.6-3.5 23.7 0.6 2.1-7.5 4.7-9.7 5-1.2 0.2-2.4-0.2-3.3-1z"/>
				</g>
				<g id="&lt;Group&gt;">
					<path id="&lt;Path&gt;" class="s15" d="m237.6 395.3c0.1-0.9 0.1-1.8 0.2-2.7 0.1-0.9 0.3-1.8 0.4-2.7q0.4-2.7 0.9-5.4c0.7-3.5 1.6-7.1 2.8-10.6 0.6-1.7 1.4-3.4 2.5-5 0.5-0.8 1.1-1.6 2-2.2q1.1-0.7 1.8-1.6c1-1.3 1.3-2.9 1.2-4.6 0-1.7-0.3-3.5-0.7-5.2-0.8-3.5-1.9-7-2.5-10.6-0.6-3.6-0.7-7.4 0.3-11.1 0.2-0.9 0.5-1.8 1-2.6q0.7-1.2 1.5-2.3c1.1-1.5 2.4-2.8 3.9-3.9-1.2 1.3-2.3 2.8-3.1 4.4q-0.6 1.2-1 2.4c-0.3 0.8-0.5 1.7-0.8 2.5-0.9 3.3-0.8 6.9-0.2 10.3 0.6 3.5 1.7 7 2.5 10.5 0.4 1.8 0.7 3.6 0.8 5.5 0 1.9-0.3 4-1.6 5.7-0.6 0.8-1.4 1.5-2.2 2-0.6 0.4-1.1 1-1.6 1.7-0.9 1.4-1.7 3-2.3 4.7-1.2 3.3-2 6.8-2.7 10.3q-0.5 2.7-0.9 5.3c-0.1 0.9-0.2 1.8-0.3 2.7-0.2 0.9-0.3 1.8-0.5 2.6-0.6 3.6-1.1 7.2-1.6 10.7-0.1-3.6 0-7.2 0.2-10.8z"/>
					<path id="&lt;Path&gt;" class="s15" d="m251.7 335.6q-0.5 0.8-1 1.5c-0.4 0.4-0.8 0.9-1.3 1.3-0.5 0.3-1.1 0.7-1.5 1.1-0.4 0.5-0.7 1-1 1.5l-0.2 0.4-0.4-0.4c-0.4-0.4-0.7-0.8-1-1.2-0.3-0.4-0.6-0.8-0.9-1.3q-0.3-0.7-0.6-1.4c-0.2-0.5-0.4-1-0.3-1.6h0.1c0.2 0.4 0.6 0.8 0.9 1.2 0.3 0.4 0.6 0.8 0.9 1.2q0.4 0.6 0.8 1.3c0.2 0.4 0.5 0.9 0.7 1.3h-0.6c0.5-0.4 1-0.8 1.4-1.2 0.4-0.4 0.7-1 1.1-1.5 0.3-0.5 0.8-1 1.2-1.3 0.5-0.4 1-0.8 1.7-1z"/>
					<path id="&lt;Path&gt;" class="s15" d="m243.9 349.1q0.8 0.6 1.5 1.3c0.5 0.4 0.9 0.8 1.3 1.3 0.4 0.5 0.8 1.1 1.2 1.6q0.5 0.8 1.3 1.4h-0.3c0.4-0.5 0.7-1.2 1.2-1.8 0.4-0.6 0.8-1.2 1.3-1.8q0.7-0.9 1.5-1.6c0.6-0.5 1.1-1.1 1.8-1.4l0.1 0.1c-0.4 0.6-0.8 1.2-1.2 1.8q-0.6 1-1.3 1.8c-0.5 0.6-1 1.1-1.5 1.7-0.5 0.5-1 1-1.6 1.5l-0.2 0.2-0.1-0.2q-0.6-0.8-1.4-1.4c-0.5-0.4-1-0.8-1.5-1.2q-0.6-0.7-1.2-1.5-0.6-0.8-1-1.7z"/>
					<path id="&lt;Path&gt;" class="s15" d="m258.3 359.8c-0.3 1.1-0.8 2-1.5 2.8-0.7 0.8-1.5 1.6-2.5 2.1-1 0.5-2 0.8-2.9 1.2-1 0.3-2 0.7-3.1 0.8l-0.3 0.1-0.2-0.4c-0.3-0.7-0.5-1.5-0.9-2.2l-1-2.3c-0.3-0.7-0.7-1.4-1.1-2.1-0.4-0.7-0.9-1.4-1.5-1.9v-0.1c0.8 0.3 1.5 0.9 2.1 1.5q0.9 1 1.5 2.1 0.6 1.1 1.1 2.3c0.2 0.9 0.5 1.6 0.7 2.5l-0.5-0.3c1 0 2.1 0 3-0.4 1-0.2 1.9-0.8 2.7-1.5 0.7-0.7 1.5-1.3 2.2-2q1.1-1 2.1-2.2z"/>
					<path id="&lt;Path&gt;" class="s15" d="m238.9 367.9c0 1.7 0.4 3.2 0.8 4.7 0.3 0.7 0.5 1.5 0.8 2.3 0.3 0.7 0.9 1.4 1.4 2l-0.3-0.1c0.8-0.7 1.6-1.4 2.4-2 0.9-0.5 1.8-1.1 2.8-1.5 1.9-0.8 4-1.3 6.1-1.2v0.1c-1 0.4-2 0.7-2.9 1q-1.4 0.6-2.8 1.2c-0.9 0.4-1.8 0.8-2.7 1.3-0.9 0.4-1.8 0.9-2.6 1.4l-0.2 0.2-0.1-0.2-1.5-2c-0.5-0.7-1-1.4-1.3-2.2-0.3-0.8-0.4-1.7-0.5-2.5 0-0.9 0.1-1.7 0.5-2.5z"/>
				</g>
			</g>
			<g id="&lt;Group&gt;">
				<g id="&lt;Group&gt;">
					<g id="&lt;Group&gt;">
						<path id="&lt;Path&gt;" class="s9" d="m219.2 425.1l-3.7-28.4c-0.4-3.1 1.7-5.9 4.3-5.9h30.4c2.6 0 4.7 2.8 4.3 5.9l-3.7 28.4c-0.3 2.5-2.1 4.3-4.3 4.3h-23c-2.2 0-4-1.8-4.3-4.3z"/>
					</g>
				</g>
				<g id="&lt;Group&gt;">
					<path id="&lt;Path&gt;" class="s10" d="m219.8 390.8h15.5c-2.6 0-4.6 2.8-4.2 5.9l3.6 28.4c0.3 2.5 2.2 4.3 4.3 4.3h-15.5c-2.2 0-4-1.8-4.3-4.3l-3.7-28.4c-0.4-3.1 1.7-5.9 4.3-5.9z"/>
				</g>
			</g>
		</g>
		<g id="&lt;Group&gt;">
			<g id="&lt;Group&gt;">
				<g id="&lt;Group&gt;">
					<path id="&lt;Path&gt;" class="s17" d="m430 429.4h-96.4c-1 0-1.8-0.8-1.8-1.8v-4.2c0-1 0.8-1.8 1.8-1.8h96.4z"/>
				</g>
				<g id="&lt;Group&gt;">
					<path id="&lt;Path&gt;" class="s9" d="m454.8 427v1.7c0 0.4-0.3 0.7-0.7 0.7h-24.2c-0.8 0-1.4-0.6-1.4-1.4v-5c0-0.8 0.7-1.5 1.5-1.4l24.2 4.7c0.4 0.1 0.6 0.3 0.6 0.7z"/>
				</g>
			</g>
			<g id="&lt;Group&gt;">
				<g id="&lt;Group&gt;">
					<g id="&lt;Group&gt;">
						<path id="&lt;Path&gt;" class="s9" d="m261.5 257.7h180.2c3.7 0 6.9 2.3 8.2 5.7l39.4 109.5c1.6 5.6-2.5 9.9-9.2 10.6-1 0.1-5.8-2.1-13.4-5.7h-161.1c-3.7 0-6.9-2.2-8.2-5.7l-35.6-98.9q-6-3.1-9.4-4.9-2.3-10.6 9.1-10.6z"/>
					</g>
					<g id="&lt;Group&gt;">
						<path id="&lt;Path&gt;" class="s10" d="m444.2 269.1l39.4 109.4c0.9 2.4-0.9 5-3.5 5h-180.2c-3.6 0-6.9-2.3-8.1-5.7l-39.4-109.5c-0.9-2.4 0.9-4.9 3.4-4.9h180.3c3.6 0 6.9 2.2 8.1 5.7z"/>
					</g>
					<g id="&lt;Group&gt;">
						<path id="&lt;Path&gt;" class="s17" d="m357.1 383.5l30.3-29.7 8 29.7z"/>
					</g>
					<g id="&lt;Group&gt;">
						<path id="&lt;Path&gt;" class="s9" d="m357.5 294.9c3.8 0 7.1 3.2 7.7 6.9 0.7 3.7-2.2 6.9-5.9 6.9-3.8 0-7-2-7.8-6.9-0.6-3.7 2.2-6.9 6-6.9z"/>
					</g>
					<g id="&lt;Group&gt;">
						<g id="&lt;Group&gt;">
							<path id="&lt;Path&gt;" class="s17" d="m436.2 365.3l-2.3-6.5h2.9l2.3 6.5z"/>
						</g>
						<g id="&lt;Group&gt;">
							<path id="&lt;Path&gt;" class="s17" d="m430.1 365.3l-2.3-6.5h2.9l2.3 6.5z"/>
						</g>
						<g id="&lt;Group&gt;">
							<path id="&lt;Path&gt;" class="s17" d="m423.9 365.3l-2.3-6.5h2.9l2.4 6.5z"/>
						</g>
						<g id="&lt;Group&gt;">
							<path id="&lt;Path&gt;" class="s17" d="m417.8 365.3l-2.3-6.5h2.9l2.3 6.5z"/>
						</g>
					</g>
					<g id="&lt;Group&gt;">
						<g id="&lt;Group&gt;">
							<path id="&lt;Path&gt;" class="s17" d="m330.7 365.3l-2.3-6.5h2.9l2.3 6.5z"/>
						</g>
						<g id="&lt;Group&gt;">
							<path id="&lt;Path&gt;" class="s17" d="m324.5 365.3l-2.3-6.5h2.9l2.3 6.5z"/>
						</g>
						<g id="&lt;Group&gt;">
							<path id="&lt;Path&gt;" class="s17" d="m318.4 365.3l-2.3-6.5h2.9l2.3 6.5z"/>
						</g>
						<g id="&lt;Group&gt;">
							<path id="&lt;Path&gt;" class="s17" d="m312.3 365.3l-2.4-6.5h3l2.3 6.5z"/>
						</g>
					</g>
				</g>
				<g id="&lt;Group&gt;">
					<g id="&lt;Group&gt;">
						<path id="&lt;Path&gt;" class="s10" d="m334.5 418.8q1.8-5.1 23.4-74.7h27.7l1.8 9.7q-18.6 59.9-20.4 65-0.2 0.6-0.3 1.2c-1.7 5 2.6 5 7.5 5q4.8 0 48.8 0v4.4h-48.8-32.6c-9.7 0-8.9-5.5-7.1-10.6z"/>
					</g>
					<g id="&lt;Group&gt;">
						<path id="&lt;Path&gt;" class="s9" d="m385.6 344.1q-21.6 69.6-23.4 74.7c-1.8 5.1-2.7 10.6 7.1 10.6h-32.5c-9.8 0-8.9-5.5-7.1-10.6q1.8-5.1 23.3-74.7z"/>
					</g>
					<g id="&lt;Group&gt;">
						<path id="&lt;Path&gt;" class="s18" d="m372.3 344.3c-2.1 0.1-4.2 0.1-6.4 0.2-2.1 0-4.3 0.1-6.4 0.1h-6.5l0.5-0.3q-1.3 4.2-2.6 8.4l-2.7 8.4c-1.8 5.6-3.7 11.2-5.6 16.7 1.5-5.7 3.1-11.3 4.8-16.9l2.5-8.5q1.3-4.2 2.7-8.4l0.1-0.4h0.3l6.5 0.1c2.1 0 4.3 0 6.4 0.1 2.2 0 4.3 0 6.4 0.1 2.2 0.1 4.3 0.1 6.5 0.2-2.2 0.1-4.3 0.2-6.5 0.2z"/>
					</g>
				</g>
			</g>
		</g>
		<g id="&lt;Group&gt;">
			<g id="&lt;Group&gt;">
				<path id="&lt;Path&gt;" class="s19" d="m181.6 437.9c0-4.7 3.9-8.5 8.6-8.5h477.3c4.7 0 8.6 3.8 8.6 8.5 0 4.8-3.9 8.6-8.6 8.6h-477.3c-4.7 0-8.6-3.8-8.6-8.6z"/>
			</g>
			<g id="&lt;Group&gt;">
				<path id="&lt;Path&gt;" class="s20" d="m181.6 437.9h494.5c0 4.8-3.9 8.6-8.6 8.6h-477.3c-4.7 0-8.6-3.8-8.6-8.6z"/>
			</g>
		</g>
		<g id="&lt;Group&gt;">
			<g id="&lt;Group&gt;">
				<circle id="&lt;Path&gt;" class="s7" cx="219.2" cy="159" r="71.9"/>
			</g>
			<g id="&lt;Clip Group&gt;" clip-path="url(#cp1)">
				<g id="&lt;Group&gt;">
					<g id="&lt;Group&gt;">
						<g id="&lt;Group&gt;">
							<path id="&lt;Path&gt;" class="s21" d="m320.2 216.4c1.4 6.8-5 12.9-7 14.1-1.9 1.1-15.3 6.4-23.3 6.6-8 0.2-18.6-16.7-14.2-18.6 4.3-1.9 33.8-4 37-4q3.2 0 7.5 1.9z"/>
							<path id="&lt;Path&gt;" class="s0" d="m299.2 212.7c-3.5 20.6-11.8 36.6-14.4 36.9-2.6 0.3-27.5-8.3-34.3-11.4-6.9-3.2 2.1-51.4 6.3-50.6 4.3 0.9 13.7 10.1 21.4 14.6q7.7 4.4 21 10.5z"/>
							<path id="&lt;Path&gt;" class="s22" d="m258.2 221.3c2.4 4.1 22.2 14.5 33.1 18.4-2.7 6-5.2 9.8-6.5 9.9-2.2 0.2-20.8-6-30.4-9.8q0.8-7.6 3.8-18.5z"/>
							<path id="&lt;Path&gt;" class="s21" d="m320.2 215.4c0.2 8.2-7.1 9.3-15.9 7.3-8.8-2.1-23.2-21.9-29.6-30.9-6.4-8.9-18.3-24.9-20.8-26.3-2.4-1.5-8.1-2.2-12.9-10.3-4.9-8 1.5-24.9 3.8-26.9 2.3-2 21.9 4.7 24.2 8.1 2.2 3.4-1.6 21.5-1 23.8 0.7 2.3 17.4 20.9 24.7 25.5 7.3 4.6 27.4 23.8 27.5 29.7z"/>
							<path id="&lt;Path&gt;" class="s23" d="m254.8 141.8c-2.3-1.1-2.8-6.3-1.4-5.4 1.5 0.9 4 0.9 7.4 0.8q3.5 0 4.9-0.3 0.3 2.2 0.3 4.1-8.9 2-11.2 0.8z"/>
							<path id="&lt;Path&gt;" class="s23" d="m239.6 143q1.4-2.6 2.4-4.6l13.5 13q3.7-3.2 8.2-6.1l1.2 2.1c-2.2 3.7-4.1 11.5-4.1 13.4q-2.1 2.3-3.2 2.5 14.4 22.8 23.7 34.1c9.2 11.1 15.5 20.8 19.9 23.9-8.8-5.1-20.8-21.5-26.5-29.5-6.4-8.9-18.3-24.9-20.8-26.3-2.4-1.5-8.1-2.2-12.9-10.3-1.9-3.1-2.1-7.7-1.4-12.2z"/>
							<path id="&lt;Path&gt;" class="s24" d="m267.6 144.3c-0.1 1.3-13.5 12.9-14.9 14.3-0.1 0.1-1.2 0.2-1.5 0-3.5-3.2-19.1-31.4-19.4-32.4-0.2-1 10.1-10.7 13.3-13.3 0.4-0.4 2.2-0.2 2.4 0.3 3.2 4.7 20.4 29.4 20.1 31.1z"/>
							<path id="&lt;Path&gt;" class="s25" d="m266.2 144.3c-0.2 1.3-13.6 12.9-15 14.3-1.4 1.3-20.5-31.3-20.8-32.4-0.3-1 11.2-10.6 14.4-13.2 0.4-0.3 1-0.3 1.3 0.2 3.2 4.7 20.3 29.4 20.1 31.1z"/>
							<path id="&lt;Path&gt;" class="s26" d="m263.9 142.4c-0.1 1.2-12.6 12.1-14 13.3-1.3 1.3-19.2-29.2-19.5-30.3-0.2-0.9 10.6-9.8 13.5-12.2 0.4-0.4 1-0.3 1.2 0.1 3 4.4 19 27.5 18.8 29.1z"/>
							<path id="&lt;Path&gt;" class="s21" d="m255.9 126.5c-2.1-1.3-4.6-5.5-4.8-7-0.3-1.4-0.1-2.7 1-3 1.1-0.2 4.5 4.2 6.2 5.6 1.8 1.3 3.8 4.1 3 5.9-0.9 1.9-4.7 1.2-5.1 0.9q-0.4-0.3-0.3-2.4z"/>
							<path id="&lt;Path&gt;" class="s23" d="m251.4 116.9c-0.6 1.6 3.7 8.2 7.4 10l-1.4 1.6q-0.6-0.1-1.4-0.3-0.1-0.7-0.1-1.7c-2.1-1.3-4.6-5.5-4.8-7-0.2-1-0.2-2 0.3-2.6z"/>
							<path id="&lt;Path&gt;" class="s21" d="m260.7 133c-3.5-1.9-6.3-1.7-8.3-2.4-1.9-0.8-2.3-3.8-1-4.3 1.4-0.5 9.4 0.8 11.5 1.7q2.1 0.9 3.1 5.2z"/>
							<path id="&lt;Path&gt;" class="s23" d="m259.2 130.8q2 0.4 2.7 0c-0.1 0.8 0.7 1.2 1.5 2.3l-2.7-0.1c-3.5-1.9-6.3-1.7-8.3-2.4-0.9-0.4-1.4-1.2-1.6-2.1 0.8 1.7 6.4 1.9 8.4 2.3z"/>
							<path id="&lt;Path&gt;" class="s21" d="m269 136.4c-1.9 2.6-11.3 1.5-13.2 1.2-1.8-0.3-3-1.5-2.8-2.7 0.3-2.4 12.7-2 13.7-1.6q1 0.4 2.3 3.1z"/>
							<path id="&lt;Path&gt;" class="s23" d="m253 135.5c1.3 1.3 4.4 2 7.7 2.3 2.9 0.2 4.6 0.1 5 0.1-3.5 0.5-8.5-0.1-9.9-0.3-1.5-0.2-2.6-1.1-2.8-2.1z"/>
						</g>
						<g id="&lt;Group&gt;">
							<path id="&lt;Path&gt;" class="s0" d="m225.2 173.3c19.9 10.1 23.1 9.7 31.6 14.3 8.6 4.6 6 52.8 5.5 60.2-0.6 7.4-2.6 36.9-1.5 44.9 1.2 8 5.6 37.7 7.5 42.3 2 4.6 5.7 12.3-0.1 16.9-5.7 4.5-17.9 7.7-44.4 6-26.4-1.8-55-18-56.2-20.3-1.3-2.3 12.6-44.3 13.2-52.3 0.6-8 2.2-14 3-17.7 0.9-3.7-7.6-21.1-8.9-32.3-1.3-11.1-13.4-41.9-11.2-47.5 2.3-5.6 23.4-11.9 37.8-19q14.3-7.2 23.7 4.5z"/>
							<path id="&lt;Path&gt;" class="s22" d="m227.7 216.5c-11.5-4.1-22.2-10.2-32-17.4 8.8 6.7 19.7 11.4 30.4 14 8.9-6.9 15.5-16.5 18.8-27.3-1.7 12.4-7.5 22.8-17.2 30.7z"/>
							<path id="&lt;Path&gt;" class="s21" d="m223.6 207.2c-16-5.4-29.9-16.8-38.4-31.3 5.5-2.3 11.3-4.7 16.3-7.1q14.3-7.2 23.7 4.5c7 3.5 11.8 5.8 15.7 7.4-2.8 10.4-8.9 19.9-17.3 26.5z"/>
							<path id="&lt;Path&gt;" class="s22" d="m167.6 337.6c-1.3-2.3 12.6-44.3 13.2-52.3 0.6-8 2.2-14 3-17.7 0.9-3.7-7.6-21.1-8.9-32.3-0.2-1.9-0.8-4.5-1.5-7.3l8.9-6.7c5.2 14.6 8.5 40.3 13.5 46.6q4.9 6.3 17.3 8.9-12.2 2.8-17.5 1.7-5.7 22.6-5.8 33.7c-0.1 11.1 1 28 1.1 30.3 0.1 0.8-0.1 3.8-0.4 7.2-12.8-5.1-22.2-10.8-22.9-12.1z"/>
							<path id="&lt;Path&gt;" class="s21" d="m227.1 158.7l-1.9 14.6c3.1 4.8 3.7 15.1-2.4 15.6q-18.2 1.7-22.7-18c2.6-2.3 3.4-10.5 3.6-22.4z"/>
							<path id="&lt;Path&gt;" class="s23" d="m201.5 168.8c1.5-3.7 2.1-10.8 2.2-20.3l23.4 10.2-1.2 9.4q-4.1 1.8-24.4 0.7z"/>
						</g>
						<g id="&lt;Group&gt;">
							<path id="&lt;Path&gt;" class="s21" d="m160.6 253.2l-5.3 9.2c11.9 11.7 16.1 25.1 20.8 35.6 4.6 10.5 11.5 20.2 12.8 21.2 1.4 1 5.1 1.5 10.3 2.3 5.2 0.7 8.6 3.2 11.3 7.1 2.8 3.9 5.7 6.9 7.9 8.9 2.3 2 1.7 4.4-2.4 4q-4.1-0.5-10.8-7.3 3 6.7 3.6 10c0.6 3.3 4.5 5.4 6.8 10.5 2.4 5.2 0.8 7.8-0.5 7.5q-1.3-0.2-2.5-2.6-3.8-0.9-8.6-4.1-5.5 0.5-8.4-2.6-3.8-0.3-5.9-2.4c-2.2-2.2-10.3-16.3-11.9-19.8-1.7-3.4-3.8-5.1-13.4-15.6-9.5-10.4-30.3-38.4-32.3-44.7-2-6.3 3.3-20 7.4-25.5z"/>
							<path id="&lt;Path&gt;" class="s23" d="m209.6 355.5c-1-1.1-2-2.3-3-3.3l-0.8-0.8c-0.2-0.3-0.4-0.4-0.8-0.9-0.4-0.7-0.8-1.3-1.1-2-0.6-1.4-1.1-2.8-1.5-4.3 0.8 1.2 1.6 2.6 2.3 3.8 0.4 0.7 0.8 1.3 1.2 1.9 0.1 0.1 0.5 0.4 0.7 0.7l0.9 0.8c2 2.2 3.9 4.6 4.9 7.5q-1.4-1.8-2.8-3.4z"/>
							<path id="&lt;Path&gt;" class="s23" d="m200.2 350.8c-0.9-1.4-1.5-3.1-1.4-4.9 0.8 1.5 1.5 2.9 2.4 4.3 0.8 1.4 1.8 2.7 2.6 4.3-1.5-0.9-2.7-2.2-3.6-3.7z"/>
							<path id="&lt;Path&gt;" class="s23" d="m199.6 355.1q-2.6-0.8-4-2.2-3.8-0.3-5.9-2.4c-0.9-0.9-2.8-3.8-4.8-7.1 0 0 2.4 2.6 4.2 4.8q2.4 3 5.9 2l-0.5-2.8q2.3 6.3 5.1 7.7z"/>
							<path id="&lt;Path&gt;" class="s23" d="m132 263.4c0.1 2.6 0.1 4.7 4 11.5 4.4 7.7 30.5 40.1 36.2 46.1 5.7 6 5.5 6.4 8.9 15.9-1.5-2.7-2.8-5-3.3-6.2-1.7-3.4-3.8-5.1-13.4-15.6-9.5-10.4-30.3-38.4-32.3-44.7-0.6-1.8-0.6-4.3-0.1-7z"/>
							<path id="&lt;Path&gt;" class="s23" d="m159.5 255.3l-4.2 7.1q-2.1-2.2-4.9-3l2.1-3.5z"/>
							<path id="&lt;Path&gt;" class="s0" d="m161.3 259.9c-22.5-9.2-34.4-21.8-33.9-23.4 0.4-1.5 16.3-20.1 22.1-26.7 5.8-6.6 12-20.9 14.2-22 2.3-1.1 11.6 2.2 16.6 11.4 4.9 9.2 2.7 26.6-2.8 37.3q-13.6 24.5-16.2 23.4z"/>
							<path id="&lt;Path&gt;" class="s22" d="m160.9 244.9l-3.6 7.3q17.7-17.7 25-30.9c-0.9 5.5-2.6 10.9-4.8 15.2q-13.6 24.5-16.2 23.4c-3.9-1.5-7.4-3.2-10.6-4.9z"/>
						</g>
						<g id="&lt;Group&gt;">
							<g id="&lt;Group&gt;">
								<path id="&lt;Path&gt;" class="s10" d="m228.4 149.5c-1.2-4.9-1.2-9.9-1.5-14.9-0.2-3.8-0.4-7.2-3.8-9.5-2.5-1.6-5.6-1.9-8.5-1.6-7.9 1-9.6 8.7-9 16 0.5 5.5 2.6 10.9 4.8 16-2.9-0.1-6.9-1.6-8.6-4 0.8 3.1 2.3 6 4.6 8.3-8.4-0.2-16.2-5.7-20.7-13-4.4-7.4-5.8-16.4-5.4-25.1 0.6-10.3 3.8-20.7 10.2-28.6 12.8-16 37.5-17.8 52.6-4.1 5.1 4.7 8.9 11 10.8 17.9 2.4 9 2.4 18.7 0.5 27.8-0.8 3.8-1.2 7-1.6 10.8-0.1 1.2-1.5 14.8-0.7 14.7-5.3 0.4-11.4-0.7-15-4.8 1.6 2.8 3 5.5 4.6 8.3-6.7-1.1-11.6-7.4-13.3-14.2z"/>
							</g>
							<path id="&lt;Path&gt;" class="s21" d="m208.2 108.2c5.3-6 13.4-9.7 21.5-9.4 6.4 0.2 12.7 3 17.3 7.5 4.5 4.5 2.3 9.2 1.9 14.9-0.1 1.9 0.5 10.6-0.1 15-1.7 12.4-11.2 24.1-14 27-2.7 2.8-8 4.8-15.5 0.8q-7.4-3.9-17.5-18.1c-7 3.7-11.6-11.6-8.3-14.8 2.2-2.3 5-1.5 7.4-0.1 0.3-8.5 1.4-16.1 7.3-22.8z"/>
							<path id="&lt;Path&gt;" class="s23" d="m194.6 135.2c0.6-2.8 3-3.3 4.8-1.4 1.8 2 2.1 8.4 1.6 9.3-0.4 0.9-3.6 0.9-4.1-1.1-0.6-1.9 1.2-3.1 2.9-2.5q0.5-2.9-0.9-4.7c-1.4-1.8-2.9-1.1-3.3-0.6q-0.4 0.4-1 1z"/>
							<g id="&lt;Group&gt;">
								<g id="&lt;Group&gt;">
									<path id="&lt;Path&gt;" class="s13" d="m213.9 122.9q1.1-1 2.2-1.8 1.1-0.8 2.4-1.5c0.9-0.4 1.8-0.8 2.7-0.9 0.9 0 1.9 0 2.7 0.4v0.1c-0.4 0.2-0.9 0.3-1.3 0.5l-1.3 0.3c-0.8 0.2-1.6 0.3-2.5 0.6q-1.2 0.4-2.4 1c-0.8 0.4-1.6 0.9-2.4 1.4z"/>
								</g>
								<g id="&lt;Group&gt;">
									<path id="&lt;Path&gt;" class="s13" d="m245.5 119.6q-1.1-0.6-2.4-0.8-1.2-0.3-2.5-0.3c-0.9-0.1-1.8 0.1-2.6 0.1-0.9 0-1.7 0-2.7-0.1v-0.1c0.8-0.6 1.7-0.9 2.6-1.1 1-0.1 1.9 0 2.8 0.1q1.4 0.2 2.7 0.8c0.8 0.3 1.6 0.8 2.2 1.3z"/>
								</g>
								<g id="&lt;Group&gt;">
									<ellipse id="&lt;Path&gt;" class="s13" cx="221.1" cy="128" rx="1.3" ry="2.2"/>
								</g>
								<g id="&lt;Group&gt;">
									<ellipse id="&lt;Path&gt;" class="s13" cx="240.4" cy="126.5" rx="1.1" ry="2.2"/>
								</g>
								<path id="&lt;Path&gt;" class="s23" d="m228.4 139.6c1.7 1.2 4.1 1.1 5.9 0-0.2 0.9-0.6 1.8-1.5 2.1-0.9 0.4-1.9 0.3-2.8-0.1-0.8-0.4-1.1-1.2-1.6-2z"/>
								<g id="&lt;Group&gt;">
									<path id="&lt;Path&gt;" class="s27" d="m221.8 146.7c4 0.1 13.5-0.7 16.7-1.1-1.3 4-4.5 8-9 8-4.1 0-6.7-3.3-7.7-6.9z"/>
									<path id="&lt;Path&gt;" class="s28" d="m225.4 152.3c1.6-0.5 3.2-0.2 3.9 0q2.1-1.5 5.2-0.5c-1.4 1.1-3.1 1.8-5 1.8-1.6 0-2.9-0.5-4.1-1.3z"/>
									<path id="&lt;Path&gt;" class="s0" d="m235.8 149c-4.1 1.2-8.5 0.9-12.3-0.5q0-0.9-0.1-1.8c4-0.1 10.3-0.6 13.7-0.9-0.3 1.1-0.7 2.2-1.3 3.2z"/>
								</g>
							</g>
							<g id="&lt;Group&gt;">
								<path id="&lt;Path&gt;" class="s10" d="m207.3 144.2c-6.7-6.5-11.4-15.3-12-24.7-0.9-16.4 11.5-29.5 27.3-31.8 7.5-1.1 18.1 0.2 24.2 5.1 6.2 5 6.4 16.9 3.5 23.5-2.4-0.4-5.3-1.6-7.6-0.8-0.4-3.2-1.1-6.9-2.4-9.9 0.2 3.1 0.1 6.2-1 9.2-3.8 0.3-7.6 0.5-11.4 0.7-0.1-3.4-1.1-6.7-2.7-9.7-0.2 2.8-0.2 5.2-1.4 7.8-6 2.5-12.4 4-18.9 4.2-2.4 8.7-1.6 18.5 2.4 26.4z"/>
							</g>
						</g>
					</g>
				</g>
				<g id="&lt;Group&gt;">
				</g>
			</g>
		</g>
		<g id="&lt;Group&gt;">
			<g id="&lt;Group&gt;">
				<circle id="&lt;Path&gt;" class="s16" cx="362.3" cy="163.8" r="41.8"/>
			</g>
			<g id="&lt;Group&gt;">
				<g id="&lt;Group&gt;">
					<rect id="&lt;Path&gt;" class="s4" x="338.3" y="147.4" width="48.1" height="32.7" rx="3.4"></rect>
				</g>
				<g id="&lt;Group&gt;">
					<path id="&lt;Path&gt;" class="s2" d="m338.3 176.7l24-15.1 24.1 15.1c0 1.9-1.6 3.5-3.5 3.5h-41.2c-1.9 0-3.4-1.6-3.4-3.5z"/>
				</g>
				<g id="&lt;Group&gt;">
					<path id="&lt;Path&gt;" class="s7" d="m341.7 147.4h41.2c1.9 0 3.5 1.6 3.5 3.5l-24.1 15.1-24-15.1c0-1.9 1.5-3.5 3.4-3.5z"/>
				</g>
			</g>
		</g>
		<g id="&lt;Group&gt;">
			<g id="&lt;Group&gt;">
				<circle id="&lt;Path&gt;" class="s16" cx="658.6" cy="223.9" r="41.8"/>
			</g>
			<g id="&lt;Group&gt;">
				<g id="&lt;Group&gt;">
					<g id="&lt;Group&gt;">
						<g id="&lt;Group&gt;">
							<path id="&lt;Compound Path&gt;" fill-rule="evenodd" class="s4" d="m671.3 216.8v4.7c0 0.5-0.4 1-1 1h-4.2c-0.4 1.7-1.1 3.2-1.9 4.6l2.9 3c0.4 0.4 0.4 1 0 1.5l-3.3 3.3c-0.4 0.4-1 0.4-1.4 0l-3-3c-1.4 0.9-3 1.5-4.6 1.9v4.2c0 0.6-0.5 1-1 1h-4.7c-0.6 0-1.1-0.4-1.1-1v-4.2c-1.6-0.4-3.2-1-4.6-1.9l-2.9 3c-0.4 0.4-1.1 0.4-1.5 0l-3.3-3.3c-0.4-0.5-0.4-1.1 0-1.5l3-3c-0.9-1.4-1.6-2.9-1.9-4.6h-4.2c-0.6 0-1.1-0.5-1.1-1v-4.7c0-0.6 0.5-1 1.1-1h4.2c0.3-1.7 1-3.2 1.9-4.6l-3-3c-0.4-0.4-0.4-1.1 0-1.5l3.3-3.3c0.4-0.4 1.1-0.4 1.5 0l2.9 3c1.4-0.9 3-1.5 4.6-1.9v-4.2c0-0.6 0.5-1.1 1.1-1.1h4.7c0.5 0 1 0.5 1 1.1v4.2c1.6 0.4 3.2 1 4.6 1.9l3-3c0.4-0.4 1-0.4 1.4 0l3.3 3.3c0.4 0.4 0.4 1.1 0 1.5l-2.9 3c0.8 1.4 1.5 2.9 1.9 4.6h4.2c0.6 0 1 0.4 1 1zm-13.4 2.3c0-3.5-2.9-6.4-6.5-6.4-3.5 0-6.4 2.9-6.4 6.4 0 3.6 2.9 6.5 6.4 6.5 3.6 0 6.5-2.9 6.5-6.5z"/>
						</g>
					</g>
					<g id="&lt;Group&gt;">
						<g id="&lt;Group&gt;">
							<path id="&lt;Compound Path&gt;" fill-rule="evenodd" class="s7" d="m660.4 219.1c0 5-4 9-9 9-4.9 0-9-4-9-9 0-4.9 4.1-8.9 9-8.9 5 0 9 4 9 8.9zm-3.5 0c0-3-2.5-5.4-5.5-5.4-3 0-5.5 2.4-5.5 5.4 0 3.1 2.5 5.5 5.5 5.5 3 0 5.5-2.4 5.5-5.5z"/>
						</g>
					</g>
				</g>
				<g id="&lt;Group&gt;">
					<g id="&lt;Group&gt;">
						<g id="&lt;Group&gt;">
							<path id="&lt;Compound Path&gt;" fill-rule="evenodd" class="s4" d="m688.8 234.7v2.4c0 0.3-0.3 0.5-0.6 0.5h-2.1q-0.3 1.3-1 2.4l1.5 1.5c0.2 0.2 0.2 0.5 0 0.7l-1.7 1.7c-0.2 0.2-0.5 0.2-0.7 0l-1.5-1.5q-1.1 0.7-2.4 1v2.1c0 0.3-0.2 0.6-0.5 0.6h-2.4c-0.3 0-0.5-0.3-0.5-0.6v-2.1q-1.3-0.3-2.4-1l-1.5 1.5c-0.2 0.2-0.6 0.2-0.8 0l-1.6-1.7c-0.3-0.2-0.3-0.5 0-0.7l1.5-1.5q-0.7-1.1-1-2.4h-2.1c-0.3 0-0.6-0.2-0.6-0.5v-2.4c0-0.3 0.3-0.5 0.6-0.5h2.1q0.3-1.3 1-2.4l-1.5-1.5c-0.3-0.2-0.3-0.6 0-0.8l1.6-1.6c0.2-0.3 0.6-0.3 0.8 0l1.5 1.5q1.1-0.7 2.4-1v-2.2c0-0.2 0.2-0.5 0.5-0.5h2.4c0.3 0 0.5 0.3 0.5 0.5v2.2q1.3 0.3 2.4 1l1.5-1.5c0.2-0.3 0.5-0.3 0.7 0l1.7 1.6c0.2 0.2 0.2 0.6 0 0.8l-1.5 1.5q0.7 1.1 1 2.4h2.1c0.3 0 0.6 0.2 0.6 0.5zm-6.9 1.2c0-1.8-1.5-3.3-3.3-3.3-1.8 0-3.3 1.5-3.3 3.3 0 1.8 1.5 3.3 3.3 3.3 1.8 0 3.3-1.5 3.3-3.3z"/>
						</g>
					</g>
					<g id="&lt;Group&gt;">
						<g id="&lt;Group&gt;">
							<path id="&lt;Compound Path&gt;" fill-rule="evenodd" class="s7" d="m683.2 235.9c0 2.5-2.1 4.6-4.6 4.6-2.5 0-4.6-2.1-4.6-4.6 0-2.5 2.1-4.6 4.6-4.6 2.5 0 4.6 2.1 4.6 4.6zm-1.8 0c0-1.6-1.3-2.8-2.8-2.8-1.6 0-2.8 1.2-2.8 2.8 0 1.5 1.2 2.8 2.8 2.8 1.5 0 2.8-1.3 2.8-2.8z"/>
						</g>
					</g>
				</g>
			</g>
		</g>
		<g id="&lt;Group&gt;">
			<g id="&lt;Group&gt;">
				<circle id="&lt;Path&gt;" class="s16" cx="470.1" cy="105.6" r="41.8"/>
			</g>
			<g id="&lt;Group&gt;">
				<rect id="&lt;Path&gt;" class="s0" x="446" y="85.9" width="48.1" height="41.1" rx="3.3"></rect>
				<g id="&lt;Group&gt;">
					<path id="&lt;Path&gt;" class="s7" d="m446 89.2c0-1.8 1.5-3.3 3.3-3.3h41.5c1.8 0 3.3 1.5 3.3 3.3v5.3h-48.1z"/>
				</g>
				<g id="&lt;Group&gt;">
					<g id="&lt;Group&gt;">
						<g id="&lt;Group&gt;">
							<g id="&lt;Group&gt;">
								<path id="&lt;Path&gt;" class="s0" d="m481.6 86.8v-1.7c0-0.6 0.5-1 1-1 0.6 0 1 0.4 1 1v1.7c0 0.5-0.4 1-1 1-0.5 0-1-0.5-1-1z"/>
								<path id="&lt;Path&gt;" class="s0" d="m484.4 86.8v-1.7c0-0.6 0.5-1 1-1 0.5 0 1 0.4 1 1v1.7c0 0.5-0.5 1-1 1-0.5 0-1-0.5-1-1z"/>
							</g>
						</g>
						<g id="&lt;Group&gt;">
							<g id="&lt;Group&gt;">
								<path id="&lt;Path&gt;" class="s0" d="m453.7 86.8v-1.7c0-0.6 0.5-1 1-1 0.6 0 1 0.4 1 1v1.7c0 0.5-0.4 1-1 1-0.5 0-1-0.5-1-1z"/>
								<path id="&lt;Path&gt;" class="s0" d="m456.5 86.8v-1.7c0-0.6 0.5-1 1-1 0.5 0 1 0.4 1 1v1.7c0 0.5-0.5 1-1 1-0.5 0-1-0.5-1-1z"/>
							</g>
						</g>
					</g>
				</g>
				<g id="&lt;Group&gt;">
					<g id="&lt;Group&gt;">
						<g id="&lt;Group&gt;">
							<rect id="&lt;Path&gt;" class="s4" x="472.3" y="99.7" width="4.2" height="4.2" rx=".8"></rect>
						</g>
						<g id="&lt;Group&gt;">
							<rect id="&lt;Path&gt;" class="s4" x="462.4" y="99.7" width="4.2" height="4.2" rx=".8"></rect>
						</g>
						<g id="&lt;Group&gt;">
							<rect id="&lt;Path&gt;" class="s4" x="452.5" y="99.7" width="4.2" height="4.2" rx=".8"></rect>
						</g>
						<g id="&lt;Group&gt;">
							<rect id="&lt;Path&gt;" class="s4" x="482.2" y="108.2" width="4.2" height="4.2" rx=".8"></rect>
						</g>
						<g id="&lt;Group&gt;">
							<rect id="&lt;Path&gt;" class="s4" x="472.3" y="108.2" width="4.2" height="4.2" rx=".8"></rect>
						</g>
						<g id="&lt;Group&gt;">
							<rect id="&lt;Path&gt;" class="s4" x="462.4" y="108.2" width="4.2" height="4.2" rx=".8"></rect>
						</g>
						<g id="&lt;Group&gt;">
							<rect id="&lt;Path&gt;" class="s4" x="452.5" y="108.2" width="4.2" height="4.2" rx=".8"></rect>
						</g>
						<g id="&lt;Group&gt;">
							<rect id="&lt;Path&gt;" class="s4" x="482.2" y="116.7" width="4.2" height="4.2" rx=".8"></rect>
						</g>
						<g id="&lt;Group&gt;">
							<rect id="&lt;Path&gt;" class="s4" x="472.3" y="116.7" width="4.2" height="4.2" rx=".8"></rect>
						</g>
						<g id="&lt;Group&gt;">
							<rect id="&lt;Path&gt;" class="s4" x="462.4" y="116.7" width="4.2" height="4.2" rx=".8"></rect>
						</g>
					</g>
				</g>
			</g>
		</g>
		<g id="&lt;Group&gt;">
			<g id="&lt;Group&gt;">
				<circle id="&lt;Path&gt;" class="s16" cx="589.7" cy="127.1" r="41.8"/>
			</g>
			<g id="&lt;Group&gt;">
				<circle id="&lt;Path&gt;" class="s0" cx="589.7" cy="127.1" r="28.6"/>
				<g id="&lt;Group&gt;">
					<g id="&lt;Group&gt;">
						<path id="&lt;Compound Path&gt;" fill-rule="evenodd" class="s7" d="m618.3 127.1c0 15.8-12.8 28.6-28.6 28.6-15.8 0-28.6-12.8-28.6-28.6 0-15.9 12.8-28.7 28.6-28.7 15.8 0 28.6 12.8 28.6 28.7zm-4.2 2.4h-4c-0.7 0-1.3-0.6-1.3-1.4v-2.1c0-0.8 0.6-1.3 1.3-1.3h4c-1.2-11.7-10.4-20.9-22-22v3.9c0 0.7-0.6 1.3-1.3 1.3h-2.2c-0.7 0-1.3-0.6-1.3-1.3v-3.9c-11.6 1.1-20.9 10.3-22 22h3.9c0.7 0 1.3 0.5 1.3 1.3v2.1c0 0.8-0.6 1.4-1.3 1.4h-3.9c1.1 11.6 10.4 20.8 22 21.9v-3.9c0-0.7 0.6-1.3 1.3-1.3h2.2c0.7 0 1.3 0.6 1.3 1.3v3.9c11.6-1.1 20.8-10.3 22-21.9z"/>
					</g>
				</g>
				<text id="24/7
" style="transform: matrix(1,0,0,1,591.308,133.874)" >
					<tspan x="-15.3" y="0" class="t29">24/7
</tspan>
				</text>
			</g>
		</g>
	</g>
</svg>