<svg viewBox="0 0 1217 703" version="1.1" xmlns="http://www.w3.org/2000/svg" xmlns:xlink="http://www.w3.org/1999/xlink"><title>Graphic</title> <defs><polyline id="path-1" points="726.05403 348.45525 726.05403 361.12635 713.38293 361.12635"></polyline> <polyline id="path-2" points="649.819518 153.031348 649.819518 165.702448 637.148418 165.702448"></polyline></defs> <g id="Home" stroke="none" stroke-width="1" fill="none" fill-rule="evenodd"><g id="Services---Desktop" transform="translate(-104.000000, -381.000000)"><g id="Hero-Section:-Customer-Journey" transform="translate(-0.272705, 250.737732)"><g id="Graphic" transform="translate(710.786236, 476.648193) rotate(-12.000000) translate(-710.786236, -476.648193) translate(145.786236, 244.148193)"><g id="infinite" transform="translate(22.807980, 30.703050)"><path d="M888.474494,0 C997.516919,0 1085.91327,88.4994974 1085.91327,197.66916 C1085.91327,306.838823 997.516919,395.33832 888.474494,395.33832 C765.075258,395.33832 641.676023,289.784108 542.956635,197.66916 C444.237247,105.554212 320.838012,0 197.438776,0 C88.3963512,0 0,88.4994974 0,197.66916 C0,306.838823 88.3963512,395.33832 197.438776,395.33832 C320.838012,395.33832 439.159659,294.989196 542.956635,197.66916 C644.644133,102.32697 769.566612,0 888.474494,0 Z" id="Path-Copy-9" stroke="#FFFFFF" stroke-width="55"></path> <path d="M564.378153,177.823802 C661.894377,88.6627474 777.790154,0 888.474494,0 C997.516919,0 1085.91327,88.4994974 1085.91327,197.66916 C1085.91327,306.838823 997.516919,395.33832 888.474494,395.33832 C765.075258,395.33832 641.676023,289.784108 542.956635,197.66916 C444.237247,105.554212 320.838012,0 197.438776,0 C88.3963512,0 0,88.4994974 0,197.66916 C0,306.838823 88.3963512,395.33832 197.438776,395.33832 C310.38167,395.33832 419.071026,311.275013 516.263533,222.411005" id="Path" stroke="#121211" stroke-width="0.855" stroke-linecap="square" fill-rule="nonzero"></path> <path d="M876.958719,433.459473 C753.559484,433.459473 630.160248,327.905261 531.44086,235.790313 C432.721472,143.675364 309.322237,38.1211528 185.923002,38.1211528" id="Path" stroke="#121211" stroke-width="19.836"></path></g> <g id="Own" transform="translate(824.883820, 167.567790)" fill-rule="nonzero"><path d="M3.186,95.532 C4.833,95.532 6.048,94.6275 6.048,93.129 C6.048,91.9545 5.3055,91.239 3.9825,90.9015 L2.565,90.537 C1.701,90.3075 1.242,89.97 1.242,89.268 C1.242,88.4175 1.971,87.9045 2.9565,87.9045 C4.05,87.9045 4.671,88.4445 4.9275,89.187 L5.994,89.187 C5.6835,87.8775 4.671,87 2.9565,87 C1.3905,87 0.2295,87.945 0.2295,89.349 C0.2295,90.6045 1.0665,91.185 2.214,91.482 L3.699,91.8735 C4.6575,92.1165 5.022,92.535 5.022,93.183 C5.022,94.101 4.266,94.6275 3.186,94.6275 C2.1735,94.6275 1.3905,94.1685 1.08,93.2505 L0,93.2505 C0.3105,94.7085 1.539,95.532 3.186,95.532 Z M12.4515,95.532 C14.3415,95.532 15.705,94.398 15.705,92.13 L15.705,87.1215 L14.6385,87.1215 L14.6385,91.995 C14.6385,93.7635 13.788,94.587 12.4515,94.587 C11.115,94.587 10.2645,93.7635 10.2645,91.995 L10.2645,87.1215 L9.2115,87.1215 L9.2115,92.1165 C9.2115,94.398 10.575,95.532 12.4515,95.532 Z M20.4075,95.4105 L20.4075,92.0895 L22.446,92.0895 C24.12,92.0895 25.173,91.2255 25.173,89.6055 C25.173,87.972 24.12,87.1215 22.446,87.1215 L19.341,87.1215 L19.341,95.4105 L20.4075,95.4105 Z M22.419,91.1445 L20.4075,91.1445 L20.4075,88.053 L22.419,88.053 C23.5395,88.053 24.12,88.6605 24.12,89.6055 C24.12,90.537 23.5395,91.1445 22.419,91.1445 Z M29.457,95.4105 L29.457,92.0895 L31.4955,92.0895 C33.1695,92.0895 34.2225,91.2255 34.2225,89.6055 C34.2225,87.972 33.1695,87.1215 31.4955,87.1215 L28.3905,87.1215 L28.3905,95.4105 L29.457,95.4105 Z M31.4685,91.1445 L29.457,91.1445 L29.457,88.053 L31.4685,88.053 C32.589,88.053 33.1695,88.6605 33.1695,89.6055 C33.1695,90.537 32.589,91.1445 31.4685,91.1445 Z M40.6935,95.532 C42.8805,95.532 44.4465,93.7635 44.4465,91.266 C44.4465,88.755 42.8805,87 40.6935,87 C38.52,87 36.954,88.755 36.954,91.266 C36.954,93.7635 38.52,95.532 40.6935,95.532 Z M40.6935,94.5735 C39.1005,94.5735 38.0205,93.21 38.0205,91.266 C38.0205,89.322 39.1005,87.9585 40.6935,87.9585 C42.3,87.9585 43.38,89.322 43.38,91.266 C43.38,93.21 42.3,94.5735 40.6935,94.5735 Z M48.798,95.4105 L48.798,91.9005 L50.2695,91.9005 L52.6455,95.4105 L53.8605,95.4105 L51.417,91.86 C52.713,91.6845 53.523,90.9015 53.523,89.5245 C53.523,87.9585 52.47,87.1215 50.8095,87.1215 L47.7315,87.1215 L47.7315,95.4105 L48.798,95.4105 Z M50.7825,90.996 L48.798,90.996 L48.798,88.053 L50.7825,88.053 C51.876,88.053 52.47,88.6065 52.47,89.5245 C52.47,90.4425 51.876,90.996 50.7825,90.996 Z M60.183,95.4105 L60.183,88.0665 L63.072,88.0665 L63.072,87.1215 L56.2275,87.1215 L56.2275,88.0665 L59.1165,88.0665 L59.1165,95.4105 L60.183,95.4105 Z M73.2735,95.532 C74.2455,95.532 75.042,95.154 75.6495,94.5465 L76.473,95.4105 L77.8095,95.4105 L76.257,93.7635 C76.7025,93.0345 76.9455,92.157 76.9725,91.2525 L76.0275,91.2525 C76.0005,91.941 75.8655,92.562 75.636,93.0885 L73.314,90.618 C72.8415,90.105 72.423,89.673 72.423,89.0655 C72.423,88.2825 72.99,87.8235 73.7055,87.8235 C74.448,87.8235 74.8665,88.3365 74.907,89.0115 L75.9195,89.0115 C75.8655,87.891 75.1095,87 73.7055,87 C72.423,87 71.4375,87.7965 71.4375,89.0925 C71.4375,89.754 71.694,90.2265 72.099,90.726 C71.2215,91.1445 70.587,91.995 70.587,92.994 C70.587,94.4655 71.694,95.532 73.2735,95.532 Z M73.2735,94.6815 C72.261,94.6815 71.559,93.9795 71.559,92.994 C71.559,92.2515 72.018,91.6035 72.666,91.3605 L75.0825,93.939 C74.637,94.4115 74.0295,94.6815 73.2735,94.6815 Z M88.038,95.532 C89.685,95.532 90.9,94.6275 90.9,93.129 C90.9,91.9545 90.1575,91.239 88.8345,90.9015 L87.417,90.537 C86.553,90.3075 86.094,89.97 86.094,89.268 C86.094,88.4175 86.823,87.9045 87.8085,87.9045 C88.902,87.9045 89.523,88.4445 89.7795,89.187 L90.846,89.187 C90.5355,87.8775 89.523,87 87.8085,87 C86.2425,87 85.0815,87.945 85.0815,89.349 C85.0815,90.6045 85.9185,91.185 87.066,91.482 L88.551,91.8735 C89.5095,92.1165 89.874,92.535 89.874,93.183 C89.874,94.101 89.118,94.6275 88.038,94.6275 C87.0255,94.6275 86.2425,94.1685 85.932,93.2505 L84.852,93.2505 C85.1625,94.7085 86.391,95.532 88.038,95.532 Z M99.477,95.4105 L99.477,94.452 L95.2515,94.452 L95.2515,91.6305 L99.0855,91.6305 L99.0855,90.6855 L95.2515,90.6855 L95.2515,88.0665 L99.477,88.0665 L99.477,87.1215 L94.1985,87.1215 L94.1985,95.4105 L99.477,95.4105 Z M104.0175,95.4105 L104.0175,91.9005 L105.489,91.9005 L107.865,95.4105 L109.08,95.4105 L106.6365,91.86 C107.9325,91.6845 108.7425,90.9015 108.7425,89.5245 C108.7425,87.9585 107.6895,87.1215 106.029,87.1215 L102.951,87.1215 L102.951,95.4105 L104.0175,95.4105 Z M106.002,90.996 L104.0175,90.996 L104.0175,88.053 L106.002,88.053 C107.0955,88.053 107.6895,88.6065 107.6895,89.5245 C107.6895,90.4425 107.0955,90.996 106.002,90.996 Z M115.605,95.4105 L118.8045,87.1215 L117.7245,87.1215 L115.119,94.0065 L112.527,87.1215 L111.4065,87.1215 L114.606,95.4105 L115.605,95.4105 Z M127.152,95.4105 L127.152,94.452 L122.9265,94.452 L122.9265,91.6305 L126.7605,91.6305 L126.7605,90.6855 L122.9265,90.6855 L122.9265,88.0665 L127.152,88.0665 L127.152,87.1215 L121.8735,87.1215 L121.8735,95.4105 L127.152,95.4105 Z" id="SUPPORT&amp;SERVE" fill="#FF322E" transform="translate(63.576000, 91.266000) rotate(12.000000) translate(-63.576000, -91.266000) "></path> <path d="M26.5918,64.5495 C37.6798,64.5495 49.5994,57.7581 49.5994,39.3243 C49.5994,22.3458 39.2044,15 27.0076,15 C15.9196,15 4,22.0686 4,40.3638 C4,56.9265 14.395,64.5495 26.5918,64.5495 Z M26.7997,62.817 C19.246,62.817 15.2959,56.0949 15.2959,39.0471 C15.2959,22.9695 19.0381,16.7325 26.7997,16.7325 C34.7692,16.7325 38.2342,24.009 38.2342,40.7103 C38.2342,56.7186 34.6999,62.817 26.7997,62.817 Z M69.4894,63.7872 L77.8054,41.1261 L78.0133,41.1261 L85.9828,63.7872 L90.0715,63.7872 L100.2586,35.2356 C101.9218,30.8004 102.4069,30.0381 104.6938,29.2758 L105.664,28.9293 L105.664,28.0284 L94.5067,28.0284 L94.5067,28.9293 L96.3085,29.4144 C97.8331,29.8302 98.5954,30.5925 98.5954,31.7013 C98.5954,32.8101 98.3182,33.9189 97.6945,35.79 L91.7347,53.7387 L91.4575,53.7387 L85.4977,35.6514 C85.0126,34.1268 84.7354,32.8794 84.7354,31.9092 C84.7354,30.5925 85.2205,29.8302 87.0916,29.3451 L88.6855,28.9293 L88.6855,28.0284 L70.8061,28.0284 L70.8061,28.9293 L71.9842,29.2758 C73.6474,29.8302 74.0632,30.3846 75.5878,34.4733 L76.9045,38.0769 L71.2219,53.808 L71.014,53.808 L65.0542,35.6514 C64.4305,33.7803 64.0147,32.4636 64.0147,31.3548 C64.0147,30.3153 64.4305,29.6916 66.0244,29.2065 L67.2718,28.9293 L67.2718,28.0284 L49.3231,28.0284 L49.3231,28.9293 L50.7091,29.3451 C52.1644,29.6916 52.7881,30.4539 54.4513,34.4733 L65.4007,63.7872 L69.4894,63.7872 Z M122.4355,63.7872 L122.4355,62.8863 L120.7723,62.5398 C118.545582,61.9999895 118.289882,61.8543827 118.277966,58.9683683 L118.2775,33.4338 C119.9407,32.8794 122.4355,32.1171 125.8312,32.1171 C129.3655,32.1171 130.7515,33.5724 130.7515,38.0076 L130.7515,58.7283 C130.7515,61.8468 130.5436,61.9854 128.2567,62.5398 L126.6628,62.8863 L126.6628,63.7872 L144.8194,63.7872 L144.8194,62.8863 L143.0869,62.4705 C140.659527,61.9310838 140.397108,61.5884816 140.384697,58.953262 L140.3842,36.2751 C140.3842,30.1074 137.335,26.9889 131.3059,26.9889 C126.3856,26.9889 121.7425,29.6223 118.2082,32.0478 L118.0696,32.0478 L118.1389,27.3354 L117.6538,27.1275 L104.2789,28.7214 L104.2789,29.3451 L106.15,30.5232 C108.3676,31.8399 108.6448,32.0478 108.6448,34.8198 L108.6448,58.7283 C108.6448,61.5003 108.5755,61.9161 105.9421,62.4705 L104.2789,62.8863 L104.2789,63.7872 L122.4355,63.7872 Z" fill="#F1F0EC" transform="translate(74.409700, 39.774750) rotate(12.000000) translate(-74.409700, -39.774750) "></path></g> <g id="Buy-" transform="translate(175.911390, 175.981890)" fill-rule="nonzero"><path d="M2.0125,92.4105 L2.0125,86.0925 L4.6315,92.4105 L5.3605,92.4105 L7.9525,86.0925 L7.9525,92.4105 L8.965,92.4105 L8.965,84.1215 L7.804,84.1215 L5.0095,90.9255 L2.2015,84.1215 L1,84.1215 L1,92.4105 L2.0125,92.4105 Z M13.114,92.4105 L14.059,89.913 L17.4745,89.913 L18.433,92.4105 L19.513,92.4105 L16.273,84.1215 L15.274,84.1215 L12.034,92.4105 L13.114,92.4105 Z M17.11,88.9815 L14.41,88.9815 L15.76,85.4445 L17.11,88.9815 Z M23.6485,92.4105 L23.6485,88.9005 L25.12,88.9005 L27.496,92.4105 L28.711,92.4105 L26.2675,88.86 C27.5635,88.6845 28.3735,87.9015 28.3735,86.5245 C28.3735,84.9585 27.3205,84.1215 25.66,84.1215 L22.582,84.1215 L22.582,92.4105 L23.6485,92.4105 Z M25.633,87.996 L23.6485,87.996 L23.6485,85.053 L25.633,85.053 C26.7265,85.053 27.3205,85.6065 27.3205,86.5245 C27.3205,87.4425 26.7265,87.996 25.633,87.996 Z M32.9005,92.4105 L32.9005,89.589 L33.7915,88.6305 L36.91,92.4105 L38.233,92.4105 L34.561,87.9015 L38.1115,84.1215 L36.7615,84.1215 L32.9005,88.266 L32.9005,84.1215 L31.834,84.1215 L31.834,92.4105 L32.9005,92.4105 Z M46.5265,92.4105 L46.5265,91.452 L42.301,91.452 L42.301,88.6305 L46.135,88.6305 L46.135,87.6855 L42.301,87.6855 L42.301,85.0665 L46.5265,85.0665 L46.5265,84.1215 L41.248,84.1215 L41.248,92.4105 L46.5265,92.4105 Z M53.3755,92.4105 L53.3755,85.0665 L56.2645,85.0665 L56.2645,84.1215 L49.42,84.1215 L49.42,85.0665 L52.309,85.0665 L52.309,92.4105 L53.3755,92.4105 Z M66.466,92.532 C67.438,92.532 68.2345,92.154 68.842,91.5465 L69.6655,92.4105 L71.002,92.4105 L69.4495,90.7635 C69.895,90.0345 70.138,89.157 70.165,88.2525 L69.22,88.2525 C69.193,88.941 69.058,89.562 68.8285,90.0885 L66.5065,87.618 C66.034,87.105 65.6155,86.673 65.6155,86.0655 C65.6155,85.2825 66.1825,84.8235 66.898,84.8235 C67.6405,84.8235 68.059,85.3365 68.0995,86.0115 L69.112,86.0115 C69.058,84.891 68.302,84 66.898,84 C65.6155,84 64.63,84.7965 64.63,86.0925 C64.63,86.754 64.8865,87.2265 65.2915,87.726 C64.414,88.1445 63.7795,88.995 63.7795,89.994 C63.7795,91.4655 64.8865,92.532 66.466,92.532 Z M66.466,91.6815 C65.4535,91.6815 64.7515,90.9795 64.7515,89.994 C64.7515,89.2515 65.2105,88.6035 65.8585,88.3605 L68.275,90.939 C67.8295,91.4115 67.222,91.6815 66.466,91.6815 Z M81.2305,92.532 C82.8775,92.532 84.0925,91.6275 84.0925,90.129 C84.0925,88.9545 83.35,88.239 82.027,87.9015 L80.6095,87.537 C79.7455,87.3075 79.2865,86.97 79.2865,86.268 C79.2865,85.4175 80.0155,84.9045 81.001,84.9045 C82.0945,84.9045 82.7155,85.4445 82.972,86.187 L84.0385,86.187 C83.728,84.8775 82.7155,84 81.001,84 C79.435,84 78.274,84.945 78.274,86.349 C78.274,87.6045 79.111,88.185 80.2585,88.482 L81.7435,88.8735 C82.702,89.1165 83.0665,89.535 83.0665,90.183 C83.0665,91.101 82.3105,91.6275 81.2305,91.6275 C80.218,91.6275 79.435,91.1685 79.1245,90.2505 L78.0445,90.2505 C78.355,91.7085 79.5835,92.532 81.2305,92.532 Z M92.6695,92.4105 L92.6695,91.452 L88.444,91.452 L88.444,88.6305 L92.278,88.6305 L92.278,87.6855 L88.444,87.6855 L88.444,85.0665 L92.6695,85.0665 L92.6695,84.1215 L87.391,84.1215 L87.391,92.4105 L92.6695,92.4105 Z M101.4355,92.4105 L101.4355,91.452 L97.21,91.452 L97.21,84.1215 L96.1435,84.1215 L96.1435,92.4105 L101.4355,92.4105 Z M110.0395,92.4105 L110.0395,91.452 L105.814,91.452 L105.814,84.1215 L104.7475,84.1215 L104.7475,92.4105 L110.0395,92.4105 Z" id="MARKET&amp;SELL" fill="#FF322E" transform="translate(55.519750, 88.266000) rotate(12.000000) translate(-55.519750, -88.266000) "></path> <path d="M28.5918,60.0249 C40.7193,60.0249 47.2335,55.3818 47.2335,46.5114 C47.2335,39.027 42.1746,35.562 32.9577,34.5225 L32.9577,34.3839 C40.7193,33.0672 44.8773,29.6715 44.8773,23.3652 C44.8773,15.2571 38.8482,12 26.9979,12 L6,12 L6,12.9009 L8.3562,13.386 C10.851,13.9404 11.1975,14.2176 11.1975,18.1677 L11.1975,53.8572 C11.1975,57.8073 10.851,58.0845 8.3562,58.6389 L6,59.124 L6,60.0249 L28.5918,60.0249 Z M25.9584,34.1067 L21.939,34.1067 L21.939,14.3562 C22.9785,14.079 24.5724,13.8711 26.3049,13.8711 C31.9182,13.8711 34.3437,16.2966 34.3437,23.781 C34.3437,31.4733 31.7103,34.1067 25.9584,34.1067 Z M27.8295,58.1538 C23.1171,58.1538 21.939,57.4608 21.939,53.3028 L21.939,35.9085 L26.6514,35.9085 C33.5121,35.9085 36.0069,38.8191 36.0069,46.65 C36.0069,54.7581 33.3735,58.1538 27.8295,58.1538 Z M74.8851,60.7872 L88.1907,58.9161 L88.1907,58.2231 L86.3889,57.5301 C84.1713,56.7678 83.8248,56.2134 83.8248,52.9563 L83.8248,23.6424 L83.409,23.3652 L69.8955,24.9591 L69.8955,25.5828 L71.9052,26.7609 C74.1228,28.2162 74.2614,28.3548 74.2614,31.2654 L74.2614,54.2037 C72.3903,54.966 69.8955,55.659 66.9156,55.659 C63.6585,55.659 61.7181,53.9265 61.7181,49.5606 L61.7181,23.6424 L61.3023,23.3652 L47.7888,24.9591 L47.7888,25.5828 L49.7292,26.7609 C51.9468,28.2162 52.1547,28.3548 52.1547,31.2654 L52.1547,51.6396 C52.1547,57.738 55.6197,60.7872 61.1637,60.7872 C66.4305,60.7872 70.6578,58.2924 74.1921,55.7976 L74.4,55.7976 L74.4,60.51 L74.8851,60.7872 Z M94.29,74.2314 C100.1112,74.2314 102.9525,70.7664 105.9324,63.4899 L118.545,31.6119 C120.2082,27.3846 121.0398,26.1372 122.703,25.5828 L123.8811,25.167 L123.8811,24.2661 L112.7931,24.2661 L112.7931,25.167 L114.5256,25.6521 C116.0502,26.0679 116.8125,26.8995 116.8125,28.0776 C116.8125,28.9092 116.466,30.2952 115.773,32.3049 L109.536,49.422 L109.2588,49.422 L102.6753,31.8891 C102.1209,30.5031 101.7051,29.2557 101.7051,28.1469 C101.7051,26.7609 102.3981,26.1372 103.8534,25.6521 L105.6552,25.167 L105.6552,24.2661 L86.7363,24.2661 L86.7363,25.167 L87.9837,25.5828 C89.439,25.9293 90.2013,26.8995 91.8645,30.7803 L104.685,61.0644 L103.6455,63.8364 C101.7051,69.0339 99.3489,71.0436 97.755,71.0436 C96.7155,71.0436 96.6462,70.4892 96.4383,69.1725 C96.0918,66.6777 94.6365,65.6382 92.4882,65.6382 C89.7855,65.6382 88.3302,67.0935 88.3302,69.519 C88.3302,72.3603 90.8943,74.2314 94.29,74.2314 Z" id="Buy" fill="#F1F0EC" transform="translate(64.940550, 43.115700) rotate(12.000000) translate(-64.940550, -43.115700) "></path></g> <g id="Recommend" transform="translate(696.772896, 12.360850)"><path d="M14.93278,32.8459804 C-4.90467128,37.5708562 -1.5583745,60.4519443 17.8515321,60.958728 C64.1135144,62.1666068 121.409672,72.414959 167.708828,72.232952 C188.198534,72.1524048 186.569932,48.915665 173.167003,45.4626552 C147.922911,38.9589952 34.7702312,28.1211045 14.93278,32.8459804 Z" id="Path" fill="#FFFFFF" transform="translate(92.384771, 51.961587) scale(1, -1) rotate(201.000000) translate(-92.384771, -51.961587) "></path> <path d="M32.4690712,88.5430814 C34.3745584,87.32455 35.1149126,85.2718571 34.0294981,83.5745324 C33.2103174,82.2935326 31.767749,81.9075149 30.510596,82.3053538 C31.2025007,81.4116774 31.3527979,80.1649701 30.666734,79.0921328 C29.6529979,77.5068955 27.6788558,77.3480082 25.9975435,78.4231829 C24.3322438,79.4881178 23.6483113,81.3468051 24.6620474,82.9320424 C25.3481113,84.0048798 26.5268514,84.401687 27.6443589,84.1382707 C26.7398247,85.1227993 26.5010809,86.5839916 27.3202616,87.8649914 C28.4056761,89.5623162 30.5795965,89.7513729 32.4690712,88.5430814 Z M28.7315592,82.6985197 C27.7227718,83.3436245 26.5183293,83.1888603 25.9039438,82.2281105 C25.2793185,81.2513481 25.6441007,80.0930875 26.6528881,79.4479827 C27.6776879,78.7926381 28.8821304,78.9474023 29.5067557,79.9241647 C30.1211413,80.8849146 29.756359,82.0431752 28.7315592,82.6985197 Z M31.8137266,87.5182815 C30.5807643,88.306743 29.192556,88.1115696 28.4757729,86.9906947 C27.7692295,85.8858324 28.1744209,84.543806 29.4073833,83.7553446 C30.6563581,82.9566434 32.0445664,83.1518168 32.7511097,84.2566791 C33.4678929,85.3775539 33.0627014,86.7195803 31.8137266,87.5182815 Z M39.7474324,83.8256017 C40.2158116,83.5350257 40.3729791,82.9230758 40.0623633,82.4223945 C39.7517476,81.9217132 39.1236467,81.7745656 38.6552674,82.0651416 C38.1707371,82.3657375 38.0235896,82.9938384 38.3342053,83.4945197 C38.644821,83.995201 39.2629021,84.1261975 39.7474324,83.8256017 Z M51.4806543,76.6091625 L48.9910499,72.340374 L50.7806574,71.2966552 L56.1599033,73.8801731 L57.6375608,73.0183869 L52.1474967,70.4334908 C53.5991845,69.3008128 54.0289163,67.7740205 53.0522253,66.099342 C51.9414787,64.1948056 50.0671673,63.923745 48.0477019,65.1015194 L44.3043028,67.284711 L50.1835993,77.3656192 L51.4806543,76.6091625 Z M50.7630054,69.832756 L48.349498,71.24034 L46.2620605,67.661125 L48.6755678,66.253541 C50.0054596,65.4779335 51.1204615,65.7297709 51.7715888,66.8462233 C52.4227161,67.9626757 52.0928972,69.0571485 50.7630054,69.832756 Z M67.9549653,67.2414496 L67.3025817,66.0601491 L62.0948769,68.9361499 L60.1744802,65.4588007 L64.899682,62.8492664 L64.256487,61.684604 L59.5312852,64.2941383 L57.748716,61.0663596 L62.9564208,58.1903588 L62.3132257,57.0256964 L55.8077542,60.6184002 L61.4494938,70.8341535 L67.9549653,67.2414496 Z M76.3706625,62.9665289 C78.5301897,61.8461685 79.3246609,59.8280784 78.7398697,57.6690579 L77.4239079,58.3517775 C77.6323279,59.7853319 77.1832737,61.0246768 75.7492126,61.7686662 C73.7583985,62.8014984 71.5671551,61.7970874 70.2979969,59.350748 C69.0200858,56.8875374 69.4863903,54.5258056 71.4603331,53.5017262 C72.8943941,52.7577369 74.166213,53.1042947 75.2094456,54.083337 L76.5254074,53.4006174 C75.1058038,51.6961089 73.0152816,51.1747503 70.8388832,52.3038635 C68.2238307,53.6605499 67.293376,56.819801 68.9651637,60.0422204 C70.6369515,63.2646399 73.7556101,64.3232153 76.3706625,62.9665289 Z M88.6126426,56.8230206 C91.3879724,55.4895059 92.2969096,52.2903953 90.7740687,49.1210372 C89.2429962,45.9345474 86.1856186,44.6622933 83.4102888,45.9958081 C80.6520907,47.3210913 79.7349219,50.5030702 81.2659944,53.6895599 C82.7888353,56.858918 85.8544445,58.1483038 88.6126426,56.8230206 Z M88.028201,55.6066724 C86.0066645,56.5779979 83.8047424,55.5062255 82.619396,53.0392657 C81.4340495,50.5723059 81.9731939,48.1834819 83.9947304,47.2121563 C86.0333986,46.2325992 88.2353207,47.3043716 89.4206671,49.7713314 C90.6060136,52.2382912 90.0668691,54.6271152 88.028201,55.6066724 Z M98.7922066,51.8597426 L95.2397839,43.7047862 L102.17268,50.3871572 L103.113637,49.9772622 L102.906837,40.3649016 L106.45926,48.519858 L107.766144,47.9505595 L103.105487,37.2515355 L101.606926,37.9043312 L101.825612,48.2578558 L94.3755011,41.0544496 L92.8246654,41.7300172 L97.4853226,52.4290412 L98.7922066,51.8597426 Z M113.982959,45.3799353 L110.791195,37.0771848 L117.424697,44.0568538 L118.382707,43.6885734 L118.5972,34.0763814 L121.788964,42.3791319 L123.119533,41.8676314 L118.932048,30.9747065 L117.406329,31.5612272 L117.171242,41.9143924 L110.043847,34.3915303 L108.464905,34.998511 L112.65239,45.8914359 L113.982959,45.3799353 Z M135.146586,37.6461592 L134.715946,36.3672439 L129.077911,38.265698 L127.810253,34.5010036 L132.925914,32.7784445 L132.50134,31.517542 L127.385679,33.2401011 L126.209001,29.7456 L131.847036,27.8471458 L131.422462,26.5862434 L124.379421,28.9577947 L128.103545,40.0177106 L135.146586,37.6461592 Z M141.189002,35.7411653 L138.607378,26.8324399 L147.450668,33.9266218 L148.509492,33.6197894 L145.2613,22.4108603 L143.892131,22.8076264 L146.362661,31.3329845 L137.922555,24.5375265 L136.553386,24.9342926 L139.801578,36.1432216 L141.189002,35.7411653 Z M157.273936,31.3471904 C160.603042,30.5587473 162.259827,27.8224752 161.440723,24.363904 C160.621618,20.9053328 157.913575,19.202797 154.584469,19.9912401 L150.940948,20.8541472 L153.630415,32.2100975 L157.273936,31.3471904 Z M156.944444,30.0384233 L154.780525,30.5509113 L152.708672,21.8027606 L154.872591,21.2902726 C157.443401,20.6814194 159.367356,22.0422779 159.99811,24.7055626 C160.628865,27.3688474 159.515254,29.42957 156.944444,30.0384233 Z" id="8.RECOMMEND" fill="#121211" fill-rule="nonzero"></path></g> <g id="Mantain" transform="translate(1077.062651, 137.064095)"><path d="M-46.3980545,65.4009075 C-64.9449626,70.5687405 -61.8163622,95.5949306 -43.6691844,96.1492252 C-0.416816764,97.4703427 53.151888,108.679478 96.4390113,108.480408 C115.59574,108.392309 114.073089,82.9771251 101.542099,79.2003956 C77.9402842,72.0870175 -27.8511464,60.2330746 -46.3980545,65.4009075 Z" id="Path" fill="#FFFFFF" transform="translate(26.015228, 86.308602) scale(-1, 1) rotate(-88.000000) translate(-26.015228, -86.308602) "></path> <path d="M33.0904766,136.717096 L23.5874317,130.593983 L22.4500688,130.368978 L20.9856957,137.77116 L22.2908663,138.029362 L23.456463,132.137449 L32.7990774,138.190075 L33.0904766,136.717096 Z M34.6215116,129.135096 C34.7069931,128.590572 34.3458725,128.072136 33.763795,127.980759 C33.1817176,127.889383 32.6603337,128.26928 32.5748522,128.813804 C32.486423,129.377105 32.8663203,129.898489 33.4483978,129.989865 C34.0304753,130.081242 34.5330825,129.698397 34.6215116,129.135096 Z M36.1897724,115.526055 L27.3137803,114.943144 L36.4314064,111.846691 L36.4986653,110.822538 L27.8618161,106.598194 L36.7378082,107.181105 L36.8312234,105.758671 L25.1862252,104.993912 L25.0791091,106.62497 L34.3800439,111.17864 L24.5622117,114.495775 L24.451359,116.183731 L36.0963572,116.94849 L36.1897724,115.526055 Z M37.0691377,99.9318502 L33.5397044,98.6368159 L33.4913419,93.8283766 L36.9938222,92.4436088 L36.9785297,90.9231537 L25.3549143,95.6018889 L25.3690599,97.0083099 L37.0844302,101.452305 L37.0691377,99.9318502 Z M32.1851105,94.35472 L32.2233418,98.1558577 L27.2247357,96.3053718 L32.1851105,94.35472 Z M36.7716197,85.1037552 L25.1236064,85.8211286 L25.2159069,87.3198143 L36.8639202,86.6024409 L36.7716197,85.1037552 Z M36.2058597,78.3719818 L26.9916085,79.4339366 L35.4594447,71.8955716 L35.3332288,70.8004352 L23.7398881,72.1365833 L23.9030984,73.5527079 L32.7208347,72.536452 L24.6146952,79.7270115 L24.7779054,81.1431362 L36.3712461,79.8069881 L36.2058597,78.3719818 Z M33.7718661,60.8696811 L23.6032429,62.7423248 L22.8665779,58.7421679 L21.5581153,58.9831331 L23.3033918,68.4601403 L24.6118543,68.2191752 L23.8751893,64.2190182 L34.0438125,62.3463745 L33.7718661,60.8696811 Z M32.1929827,53.0027478 L28.4574877,52.5783768 L27.2742818,47.9175345 L30.3503617,45.744361 L29.9762254,44.2705769 L19.7873411,51.563425 L20.1334171,52.9266753 L32.5671189,54.476532 L32.1929827,53.0027478 Z M26.129414,48.7376292 L27.0647546,52.4220895 L21.7704413,51.8051555 L26.129414,48.7376292 Z M28.3984119,38.6682174 L17.2537104,42.1303651 L17.6991659,43.5642925 L28.8438674,40.1021448 L28.3984119,38.6682174 Z M26.2504489,32.2680772 L17.5539786,35.4932251 L23.9835929,26.1555992 L23.6002762,25.1220023 L12.6584058,29.1798727 L13.154074,30.5164204 L21.4763109,27.4300597 L15.3151874,36.3437683 L15.8108556,37.680316 L26.752726,33.6224455 L26.2504489,32.2680772 Z" id="7.MAINTAIN" fill="#121211" fill-rule="nonzero"></path></g> <g id="Use" transform="translate(816.453076, 396.545754)"><path d="M9.71073663,6.30144264 C-1.77727362,10.8786661 0.160590834,33.0447202 11.4010069,33.5356669 C38.1916525,34.7057995 71.3722682,44.6338907 98.1844415,44.4575714 C110.050177,44.3795413 109.107042,21.8689496 101.345309,18.5238464 C86.7262748,12.2234258 21.1987469,1.72421915 9.71073663,6.30144264 Z" id="Path" fill="#FFFFFF" transform="translate(54.563740, 24.819687) rotate(5.000000) translate(-54.563740, -24.819687) "></path> <path d="M24.1678226,25.7854675 C26.4698674,26.4456477 28.4187591,25.1656814 29.0108255,23.1011491 C29.5924129,21.0731572 28.6180729,18.9548667 26.4439194,18.3313632 C25.1284652,17.9541174 23.7521432,18.4096457 23.0618887,19.4376075 C23.0933258,19.3279863 23.1536485,19.0486938 23.1850856,18.9390726 C23.876703,16.5274065 25.603937,14.9861454 27.2482548,15.4577027 C28.381007,15.7825533 28.8188103,16.600154 28.8569484,17.6392762 L30.2820238,18.0479592 C30.3360544,16.2048121 29.5620053,14.8360086 27.5888239,14.2701398 C25.1588877,13.5732829 22.8073702,15.4298318 21.7647046,19.0656011 C21.3874588,20.3810554 21.2505497,21.5479327 21.4374009,22.6890212 C21.728225,24.2949284 22.7062068,25.3663054 24.1678226,25.7854675 Z M24.537141,24.5666038 C23.0937954,24.1526813 22.4110972,22.8100754 22.8302592,21.3484596 C23.2651399,19.8320332 24.5686537,19.0788059 25.9937291,19.4874889 C27.4005343,19.8909324 28.1015027,21.2387777 27.6718616,22.7369339 C27.24746,24.2168199 25.9439462,24.9700472 24.537141,24.5666038 Z M32.4624648,28.0319323 C32.9966606,28.1677573 33.5464769,27.8564916 33.6916691,27.2854547 C33.8368613,26.7144179 33.5071751,26.1599179 32.9729793,26.024093 C32.420363,25.8835844 31.8658631,26.2132706 31.7206709,26.7843074 C31.5754787,27.3553443 31.9098485,27.8914237 32.4624648,28.0319323 Z M48.7002864,31.7189989 C51.3144761,32.215553 53.4983597,31.0052675 54.0942245,27.8682398 L55.4100928,20.9406371 L53.9349429,20.6604387 L52.6545428,27.4013136 C52.18991,29.8474483 50.797169,30.7630387 48.9485634,30.4119041 C47.0999578,30.0607694 46.1399281,28.6982803 46.6045609,26.2521456 L47.884961,19.5112707 L46.4284839,19.2346192 L45.1161624,26.1435491 C44.5167507,29.2992496 46.1047694,31.2259917 48.7002864,31.7189989 Z M61.7498052,33.9341437 C64.0473507,34.2474656 65.9143315,33.216838 66.1994032,31.1264483 C66.4228377,29.4880347 65.5231743,28.348669 63.7418103,27.6261756 L61.8337564,26.8480401 C60.6721462,26.3635247 60.096052,25.8053969 60.2295991,24.8261153 C60.3913965,23.6396779 61.505935,23.0627324 62.8806958,23.250212 C64.4061153,23.4582372 65.1696744,24.3296686 65.3862372,25.4142434 L66.873992,25.6171322 C66.6899648,23.7313263 65.4444732,22.3146083 63.052766,21.9884452 C60.8682146,21.6905325 59.0688585,22.78793 58.8017643,24.7464933 C58.5629205,26.4979009 59.6200924,27.4669208 61.1643406,28.0995304 L63.1614198,28.9281716 C64.4522881,29.4494969 64.8811467,30.1026412 64.7578725,31.0065935 C64.583234,32.2871926 63.4284626,32.8778339 61.9218755,32.6723769 C60.50945,32.4797609 59.5044935,31.690505 59.2459882,30.350837 L57.739401,30.1453799 C57.8951778,32.2383416 59.4522597,33.6208217 61.7498052,33.9341437 Z M77.7871633,35.4884623 L77.9002995,34.1437411 L71.972162,33.644986 L72.3051966,29.6865811 L77.6840817,30.1391257 L77.7956243,28.8133441 L72.4167393,28.3607996 L72.7258718,24.6864907 L78.6540093,25.1852458 L78.7655519,23.8594643 L71.3601151,23.2364188 L70.3817265,34.8654168 L77.7871633,35.4884623 Z" id="6.USE" fill="#121211" fill-rule="nonzero"></path></g> <g id="Receive" transform="translate(489.509722, 159.391046)"><path d="M10.0481874,46.0303082 C-7.25303289,51.509514 -4.33456232,78.0435852 12.5937752,78.6312772 C52.941133,80.0319949 102.91194,91.9165042 143.291719,91.7054397 C161.161802,91.612033 159.741419,64.6655302 148.052062,60.6612447 C126.035444,53.1192705 27.3494076,40.5511023 10.0481874,46.0303082 Z" id="Path" fill="#FFFFFF" transform="translate(77.597891, 68.197736) rotate(38.000000) translate(-77.597891, -68.197736) "></path> <path d="M37.6242024,41.7088316 C39.2654732,43.1809888 41.5439487,43.0033896 43.016106,41.3621188 C44.5136453,39.6925501 44.4731613,37.460465 42.8743371,36.0263808 C42.1668928,35.3918303 41.3329682,35.1544766 40.7947124,35.1567942 L43.1425494,32.5392502 L46.9627487,35.9658231 L47.8511195,34.9754011 L43.0970936,30.7112214 L38.820223,35.4793962 L39.697454,36.2662388 C40.3782266,36.1619633 41.2190107,36.2778085 41.9123062,36.899668 C42.9734726,37.8514938 42.9462962,39.3335197 41.9690884,40.422984 C40.9918805,41.5124482 39.5342087,41.6858421 38.4871911,40.7467073 C37.3977269,39.7694994 37.3335803,38.588544 38.0633976,37.404841 L36.9739333,36.4276332 C35.7252425,38.2182804 35.9687827,40.2239833 37.6242024,41.7088316 Z M43.9283961,47.2701625 C44.3371498,47.639938 44.968699,47.6217752 45.3639763,47.1848315 C45.7592536,46.7478879 45.7269958,46.1035878 45.3182421,45.7338123 C44.8953934,45.3512859 44.2510934,45.3835437 43.855816,45.8204873 C43.4605387,46.2574309 43.5055474,46.887636 43.9283961,47.2701625 Z M54.1769509,56.4665297 L57.5177924,52.8251751 L59.0443603,54.2257587 L58.1684358,60.128606 L59.4289047,61.2850512 L60.2733514,55.2759412 C61.7848936,56.327415 63.3704709,56.2860762 64.6811087,54.8575448 C66.171638,53.2329404 65.8758938,51.3623649 64.153253,49.7818899 L60.9600651,46.8522289 L53.0705393,55.4514279 L54.1769509,56.4665297 Z M60.4374675,53.7756864 L58.3787016,51.886826 L61.1798687,48.8336902 L63.2386346,50.7225506 C64.3730566,51.7633513 64.4624608,52.9029381 63.5887023,53.8552923 C62.7149437,54.8076466 61.5718895,54.8164871 60.4374675,53.7756864 Z M68.1266733,69.3191595 L69.0435181,68.3289723 L64.6783267,64.2871071 L67.3772079,61.3723308 L71.3379567,65.03971 L72.2418882,64.0634692 L68.2811394,60.3960899 L70.786321,57.690508 L75.1515124,61.7323732 L76.0554439,60.7561323 L70.6024413,55.7070291 L62.6736706,64.2700563 L68.1266733,69.3191595 Z M74.9128181,75.866088 C76.6916333,77.5257812 78.8592512,77.5986131 80.6978067,76.3246177 L79.6138412,75.3132421 C78.3328389,75.9896668 77.0146736,75.9815415 75.8334292,74.8794015 C74.193584,73.3493718 74.4062538,70.9482969 76.2863751,68.9332328 C78.1794626,66.9042718 80.5609941,66.5528114 82.1869423,68.0698747 C83.3681868,69.1720147 83.4675148,70.4864574 82.8943286,71.7973028 L83.9782941,72.8086784 C85.1090335,70.9002623 84.9002656,68.7558477 83.1075534,67.0831882 C80.9535194,65.0734034 77.6650861,65.2545652 75.1885126,67.9088909 C72.7119391,70.5632166 72.7587841,73.8563032 74.9128181,75.866088 Z M87.1677942,87.0051151 L88.0847361,86.0150179 L83.719941,81.9727247 L86.4191079,79.058213 L90.3794971,82.7259805 L91.2835243,81.7498283 L87.3231352,78.0820607 L89.828582,75.3767244 L94.1933771,79.4190176 L95.0974043,78.4428653 L89.6448967,73.3932276 L81.7152866,81.9554774 L87.1677942,87.0051151 Z M91.8650662,91.3415452 L99.76586,82.7526979 L98.6607803,81.7361463 L90.7599865,90.3249935 L91.8650662,91.3415452 Z M99.4145943,98.2507238 L110.607615,92.6651768 L109.484298,91.6403959 L100.241317,96.3292599 L104.078333,86.7086381 L102.912891,85.6454279 L98.3755258,97.3028015 L99.4145943,98.2507238 Z M111.464517,109.171086 L112.367998,108.168691 L107.948987,104.185738 L110.60853,101.235025 L114.618112,104.84895 L115.508868,103.860672 L111.499286,100.246747 L113.967953,97.5078075 L118.386964,101.49076 L119.277721,100.502483 L113.757486,95.5269734 L105.944282,104.195577 L111.464517,109.171086 Z" id="5.RECEIVE" fill="#121211" fill-rule="nonzero"></path></g> <g id="Purchase" transform="translate(191.217274, 0.000000)"><path d="M17.3821024,17.8390881 C-3.65618147,23.318294 -0.107321265,49.8523651 20.4775371,50.4400571 C69.5399243,51.8407748 130.304425,63.7252841 179.406237,63.5142196 C201.136258,63.4208129 199.409071,36.4743101 185.194814,32.4700246 C158.422606,24.9280504 38.4203862,12.3598822 17.3821024,17.8390881 Z" id="Path-2" fill="#FFFFFF" transform="translate(99.522542, 40.006516) rotate(10.000000) translate(-99.522542, -40.006516) "></path> <path d="M43.1589883,36.7478413 L43.3163158,34.1106056 L45.3653911,34.2328456 L45.4400933,32.980633 L43.3910181,32.8583929 L43.5585322,30.0504009 L42.1735092,29.9677757 L42.005995,32.7757677 L38.2873029,32.5539246 L43.095029,25.053195 L41.5771954,24.9626468 L36.6253404,32.6451827 L36.5619567,33.7076661 L41.9312927,34.0279803 L41.7739653,36.6652161 L43.1589883,36.7478413 Z M49.7969368,37.3015258 C50.34545,37.3558107 50.8424455,36.9657083 50.9004741,36.3793667 C50.9585027,35.793025 50.5494861,35.2941577 50.0009729,35.2398728 C49.4335455,35.1837161 48.9346782,35.5927327 48.8766496,36.1790744 C48.8186209,36.765416 49.2295094,37.2453691 49.7969368,37.3015258 Z M63.4724311,38.9275548 L64.2372942,34.3149031 L67.0686373,34.7843922 C69.3937137,35.169933 71.0552506,34.2124111 71.4283545,31.9623371 C71.8045677,29.6935125 70.5378991,28.2697061 68.2128227,27.8841653 L63.9001809,27.1690495 L61.9911324,38.6819281 L63.4724311,38.9275548 Z M67.24878,33.4656307 L64.4549381,33.00236 L65.1669448,28.7084688 L67.9607867,29.1717395 C69.5170879,29.429803 70.1834504,30.4072763 69.9658064,31.7198195 C69.7512717,33.0136121 68.8050812,33.7236942 67.24878,33.4656307 Z M78.7625687,41.9347094 C81.3618434,42.5042047 83.5787316,41.3554901 84.262126,38.2363604 L85.7712885,31.3482825 L84.304555,31.0269245 L82.8360706,37.7293399 C82.3031857,40.1615183 80.8853749,41.0377866 79.0473164,40.635072 C77.2092578,40.2323575 76.2877215,38.8435435 76.8206064,36.411365 L78.2890907,29.7089496 L76.8409234,29.3916593 L75.3358286,36.261171 C74.6483664,39.3988669 76.1818603,41.3692819 78.7625687,41.9347094 Z M89.7206542,44.3000113 L91.009389,39.529283 L93.0094251,40.0695603 L94.9501063,45.7126629 L96.6015122,46.1587634 L94.5839563,40.4358306 C96.4098927,40.6731347 97.7983169,39.9062957 98.3038975,38.0347023 C98.8788715,35.9062235 97.7549667,34.3819679 95.4980453,33.7722972 L91.3144836,32.6421759 L88.2710867,43.9084341 L89.7206542,44.3000113 Z M94.0387824,39.0285339 L91.3414861,38.299903 L92.4220406,34.2998309 L95.119337,35.0284617 C96.6056023,35.4299522 97.2097328,36.4003529 96.8726791,37.6480819 C96.5356253,38.8958108 95.5250478,39.4300243 94.0387824,39.0285339 Z M105.057272,48.8883695 C107.37577,49.6254814 109.365412,48.7622338 110.480492,46.8231758 L109.067658,46.3739982 C108.200201,47.5341859 107.005766,48.0918162 105.466139,47.6023279 C103.328774,46.9228029 102.491808,44.6622991 103.326818,42.035876 C104.167586,39.3913397 106.168644,38.053063 108.287895,38.7268293 C109.827523,39.2163177 110.480641,40.361334 110.524606,41.7913428 L111.93744,42.2405204 C112.141099,40.0316413 111.033373,38.1836583 108.696762,37.4407877 C105.889206,36.5481913 102.995779,38.1213067 101.89587,41.5809398 C100.795961,45.0405729 102.249716,47.9957731 105.057272,48.8883695 Z M115.200713,52.0637945 L117.032257,47.0670293 L123.224676,49.3368355 L121.393132,54.3336007 L122.802934,54.8503577 L126.819248,43.8931655 L125.409447,43.3764085 L123.689104,48.0697986 L117.496684,45.7999924 L119.217027,41.1066023 L117.807225,40.5898453 L113.790911,51.5470375 L115.200713,52.0637945 Z M128.260091,56.9301641 L130.831408,54.187475 L135.276382,56.0220425 L135.182303,59.7871586 L136.587828,60.367259 L136.823523,47.8395519 L135.523412,47.302959 L126.854566,56.3500637 L128.260091,56.9301641 Z M135.302353,54.6139931 L131.78854,53.1637421 L135.445276,49.2857726 L135.302353,54.6139931 Z M143.665795,63.6497322 C145.778467,64.6055071 147.861887,64.1503494 148.731486,62.2281648 C149.413063,60.7215877 148.875843,59.3729058 147.374634,58.1722277 L145.767876,56.8820762 C144.792771,56.0862974 144.399849,55.3870095 144.807229,54.4865266 C145.300784,53.395557 146.533602,53.1605597 147.797741,53.7324578 C149.200416,54.3670296 149.683628,55.4200829 149.581769,56.5213669 L150.94981,57.1402703 C151.311439,55.2803364 150.52189,53.5671662 148.322634,52.5722203 C146.313864,51.6634507 144.276209,52.2018962 143.46145,54.0028619 C142.732867,55.6133409 143.469649,56.8436926 144.769239,57.8905749 L146.446914,59.2545315 C147.535404,60.1224668 147.760101,60.870817 147.384059,61.702032 C146.851332,62.8795865 145.576046,63.1162323 144.190688,62.4894947 C142.891915,61.9019282 142.153893,60.8587661 142.28833,59.5010245 L140.902972,58.8742869 C140.455166,60.9247076 141.553124,62.6939573 143.665795,63.6497322 Z M158.296333,70.3616198 L158.888144,69.1488399 L153.541664,66.539871 L155.283755,62.969857 L160.134875,65.3371004 L160.71835,64.141402 L155.867231,61.7741585 L157.484291,58.4603657 L162.830771,61.0693347 L163.414247,59.8736362 L156.735417,56.6145088 L151.617503,67.1024924 L158.296333,70.3616198 Z" id="4.PURCHASE" fill="#121211" fill-rule="nonzero"></path></g> <g id="Select" transform="translate(-0.000000, 71.237794)"><path d="M-16.6955732,54.0238702 C-32.7511056,59.9299651 -30.0427649,88.5313252 -14.3332677,89.1648047 C23.1090804,90.6746533 69.481989,103.485094 106.954424,103.257585 C123.537861,103.156901 122.219745,74.110976 111.372023,69.7947138 C90.9406007,61.6651388 -0.640040767,48.1177754 -16.6955732,54.0238702 Z" id="Path" fill="#FFFFFF" transform="translate(45.990552, 77.918379) rotate(-73.000000) translate(-45.990552, -77.918379) "></path> <path d="M31.3371553,123.226228 C31.7637576,120.927663 30.5254108,119.267321 28.6379708,118.917021 C27.3485317,118.677708 26.1750487,119.271827 25.5910772,120.439305 C25.4676148,119.333843 24.5785334,118.395585 23.3077818,118.159739 C21.4764044,117.819845 19.9254959,118.88519 19.5197034,121.07163 C19.1416574,123.10857 20.2457233,124.763321 22.1372011,125.404339 L22.4042611,123.965399 C21.2394744,123.57524 20.5511415,122.596914 20.790455,121.307475 C21.0297686,120.018036 22.0198446,119.370547 23.1224085,119.575177 C24.3557851,119.804086 24.8738079,120.866789 24.6483676,122.081478 L24.5061668,122.847667 L25.7582309,123.080044 L25.9073683,122.27648 C26.1501502,120.968354 27.1070958,120.082741 28.396535,120.322054 C29.6672866,120.557899 30.3161221,121.644881 30.0629353,123.00907 C29.7958753,124.44801 28.791926,125.170249 27.4269604,125.129562 L27.1599004,126.568501 C29.2688987,126.766609 30.9209578,125.468731 31.3371553,123.226228 Z M32.8648305,114.964174 C32.988639,114.427066 32.665119,113.88437 32.0909691,113.752023 C31.5168191,113.619676 30.9698537,113.961717 30.8460452,114.498825 C30.7179674,115.054454 31.0600084,115.601419 31.6341583,115.733766 C32.2083082,115.866113 32.7367527,115.519803 32.8648305,114.964174 Z M37.0759111,99.7409416 C37.7759164,97.5303131 37.0782801,95.5150924 35.0669706,94.8782023 C33.4905388,94.3790182 32.2146076,95.0715123 31.1993106,96.7038194 L30.1076095,98.4514903 C29.4323552,99.5136225 28.7842741,99.9862556 27.842039,99.6878927 C26.700485,99.3264145 26.321767,98.1299052 26.7406226,96.807152 C27.2053803,95.3394397 28.1941129,94.7354339 29.299725,94.7067319 L29.7530071,93.2752593 C27.863408,93.1354556 26.255283,94.1214948 25.5265889,96.4227229 C24.8610101,98.524632 25.6359571,100.484586 27.5204273,101.081312 C29.2055786,101.614923 30.3404749,100.738212 31.2268215,99.3242502 L32.3834511,97.4974553 C33.1169895,96.3142215 33.8336258,96.0028542 34.7033813,96.2782661 C35.9355349,96.668433 36.3208973,97.90692 35.8618774,99.3565124 C35.4315463,100.715505 34.4826801,101.571376 33.1185583,101.597967 L32.6595384,103.04756 C34.7484564,103.250479 36.3759058,101.95157 37.0759111,99.7409416 Z M42.293948,84.5208311 L41.0353922,84.0338893 L38.8887335,89.5821707 L35.1839705,88.1487788 L37.1317375,83.1145554 L35.8909078,82.634472 L33.9431408,87.6686953 L30.5042699,86.3381784 L32.6509286,80.789897 L31.4100989,80.3098136 L28.7284901,87.2407338 L39.6123392,91.4517513 L42.293948,84.5208311 Z M47.2519199,73.2263056 L46.0260199,72.6621741 L43.539074,78.0664937 L34.1635292,73.7520794 L33.5358336,75.1161089 L44.1372783,79.9946547 L47.2519199,73.2263056 Z M52.7980937,62.4821084 L51.6095105,61.8430897 L48.7924279,67.0829004 L45.2936406,65.2018452 L47.8497155,60.4475122 L46.6778728,59.8174938 L44.1217979,64.5718268 L40.8741197,62.8257756 L43.6912023,57.5859649 L42.5193597,56.9559465 L39.0002565,63.5015247 L49.2789906,69.0276866 L52.7980937,62.4821084 Z M57.7417255,54.4610547 C59.0304323,52.3975626 58.6872048,50.2560522 57.0849867,48.6952039 L56.299681,49.9526444 C57.2086947,51.0805678 57.4529141,52.3759374 56.5971322,53.7462252 C55.4091056,55.648507 53.0116967,55.8991453 50.6741471,54.4392821 C48.3204764,52.9693509 47.5198679,50.6990551 48.6978265,48.8128944 C49.5536084,47.4426066 50.824766,47.093631 52.2210598,47.4054348 L53.0063656,46.1479943 C50.9168673,45.4032656 48.8520081,46.0184517 47.5532332,48.0980648 C45.9926898,50.5968248 46.7996562,53.7898514 49.8787733,55.7128436 C52.9578904,57.6358358 56.1811821,56.9598147 57.7417255,54.4610547 Z M65.1186858,43.1067868 L56.7373232,37.0519992 L59.1191697,33.7549191 L58.0406856,32.9758104 L52.3977126,40.7871171 L53.4761968,41.5662258 L55.8580433,38.2691456 L64.239406,44.3239332 L65.1186858,43.1067868 Z" id="3.SELECT" fill="#121211" fill-rule="nonzero"></path></g> <g id="Research" transform="translate(78.821413, 370.673422)"><path d="M16.6559751,16.8567343 C-2.02934279,22.9104815 1.12260542,52.2268756 19.4052099,52.8761921 C62.9803564,54.4237869 116.948828,67.5544881 160.558989,67.3212917 C179.858679,67.2180905 178.324665,37.4460177 165.70016,33.0218489 C141.922212,24.6890345 35.341293,10.8029871 16.6559751,16.8567343 Z" id="Path" fill="#FFFFFF" transform="translate(89.609655, 41.348605) rotate(-170.000000) translate(-89.609655, -41.348605) "></path> <path d="M32.6322638,29.0532884 L33.3499239,27.9329749 L28.6606116,24.9290546 L32.9104515,23.7916456 C34.6203893,23.306974 36.2380566,22.9663426 37.037735,21.7179932 C38.1142252,20.037523 37.6910673,18.2315583 35.8185433,17.0320406 C34.0100372,15.8735321 31.9837661,16.3587121 30.6229515,18.0601952 L31.9193143,18.8906305 C32.7432536,17.8158262 33.9165517,17.3936848 35.1008831,18.1523541 C36.1891877,18.8495097 36.4570365,19.9465417 35.8111424,20.9548239 C35.2165097,21.8830836 33.8934191,22.1866977 32.1514723,22.6508648 L26.7475868,24.1098882 L26.2144678,24.9421211 L32.6322638,29.0532884 Z M36.8529631,31.7846539 C37.3296955,32.0613121 37.9436513,31.9121726 38.2393894,31.4025621 C38.5351275,30.8929516 38.3695488,30.2694559 37.8928164,29.9927976 C37.399645,29.7065995 36.7761493,29.8721781 36.4804112,30.3817886 C36.1846731,30.8913991 36.3597916,31.4984558 36.8529631,31.7846539 Z M49.027241,38.2183659 L51.1490276,33.755328 L53.0200704,34.6448463 L53.9194172,40.5441705 L55.4643149,41.278635 L54.5036227,35.2870107 C56.2576029,35.8472877 57.7608563,35.34133 58.5932495,33.5904459 C59.5398928,31.5992444 58.7069459,29.8984455 56.5955857,28.8946772 L52.6818448,27.0340336 L47.6711641,37.5736692 L49.027241,38.2183659 Z M54.2191287,33.804863 L51.6957957,32.6052375 L53.4748321,28.8631519 L55.9981651,30.0627774 C57.3885731,30.7237955 57.809267,31.7866538 57.2543382,32.9539099 C56.6994094,34.121166 55.6095366,34.4658811 54.2191287,33.804863 Z M66.3665181,45.831492 L66.8660407,44.5778763 L61.3395379,42.3757554 L62.8099636,38.6855347 L67.8244263,40.6836252 L68.3169134,39.4476661 L63.3024507,37.4495756 L64.6673435,34.0242032 L70.1938464,36.2263241 L70.6863335,34.990365 L63.7826191,32.2394727 L59.4628036,43.0805997 L66.3665181,45.831492 Z M74.2510427,48.8253669 C76.4546584,49.547145 78.4766629,48.8694218 79.1333626,46.8644927 C79.6480732,45.2930618 78.9681992,44.0103616 77.345987,42.9790121 L75.6091702,41.8701242 C74.5537507,41.1844253 74.0875337,40.5317134 74.3951768,39.5924674 C74.7678982,38.4545347 75.9680853,38.0876381 77.2866422,38.5195217 C78.7496986,38.998735 79.3439215,39.9933778 79.3617158,41.0992192 L80.7886473,41.5666001 C80.9470843,39.678472 79.9769564,38.0606984 77.6830285,37.3093393 C75.5877873,36.6230585 73.6202839,37.3786338 73.0049977,39.2571259 C72.4547898,40.9369314 73.3202629,42.0804208 74.7254123,42.9806723 L76.5407087,44.1552661 C77.716649,44.9004409 78.0209318,45.6201138 77.7369535,46.4871102 C77.334651,47.715355 76.0924229,48.0884816 74.647429,47.6151845 C73.2927472,47.1714685 72.4462779,46.2142057 72.4331447,44.8498879 L70.9881507,44.3765908 C70.7646354,46.4634055 72.047427,48.1035888 74.2510427,48.8253669 Z M89.7641512,53.1454794 L90.1030607,51.8392576 L84.3446463,50.3451915 L85.3422815,46.5001161 L90.5671687,47.8557543 L90.9013049,46.56793 L85.6764177,45.2122918 L86.6024523,41.6431787 L92.3608667,43.1372448 L92.6950029,41.8494205 L85.5015842,39.9830312 L82.5707325,51.2790902 L89.7641512,53.1454794 Z M95.0429651,54.3827976 L97.0041949,51.1753701 L101.728975,52.0697297 L102.400923,55.7755948 L103.894925,56.0583963 L101.583421,43.7435293 L100.20147,43.481938 L93.5489635,54.0999961 L95.0429651,54.3827976 Z M101.468666,50.6857078 L97.7336617,49.9787042 L100.527339,45.4393506 L101.468666,50.6857078 Z M109.648088,56.9469381 L110.234436,52.0401182 L112.291526,52.2859334 L115.026718,57.5896658 L116.725232,57.7926325 L113.902445,52.421007 C115.743511,52.3921637 117.006655,51.4328765 117.236684,49.5078933 C117.498285,47.3186968 116.16606,45.9727045 113.844757,45.6953168 L109.541854,45.1811346 L108.15717,56.7687785 L109.648088,56.9469381 Z M113.159774,51.1071807 L110.385534,50.7756685 L110.877164,46.6614887 L113.651405,46.9930009 C115.180068,47.1756709 115.91799,48.0486668 115.764638,49.3319889 C115.611285,50.615311 114.688437,51.2898507 113.159774,51.1071807 Z M125.576141,58.6203801 C128.005741,58.7461109 129.711799,57.4069924 130.299292,55.2487054 L128.818754,55.1720882 C128.273499,56.5141814 127.259289,57.3562044 125.645882,57.2727113 C123.406095,57.1568032 122.023784,55.182061 122.166214,52.4297796 C122.309625,49.6585169 123.906389,47.8569726 126.127195,47.9718983 C127.740602,48.0553914 128.662479,48.9976061 129.067269,50.3698317 L130.547806,50.4464489 C130.185254,48.2580295 128.645518,46.7509426 126.196937,46.6242295 C123.254843,46.4719774 120.854309,48.7267612 120.666695,52.3521801 C120.479081,55.977599 122.634047,58.468128 125.576141,58.6203801 Z M136.203678,58.8004079 L136.112101,53.4793339 L142.706432,53.3658434 L142.798009,58.6869174 L144.299312,58.6610795 L144.098496,46.9927244 L142.597193,47.0185623 L142.68321,52.0165711 L136.088879,52.1300616 L136.002862,47.1320528 L134.501559,47.1578907 L134.702375,58.8262458 L136.203678,58.8004079 Z" id="2.RESEARCH" fill="#121211" fill-rule="nonzero"></path></g> <g id="Need" transform="translate(384.227170, 275.449605)"><path d="M6.45424804,38.7435119 C-6.97149888,43.173083 -4.70676572,64.6241031 8.42962418,65.0992128 C39.7391739,66.2315992 78.5165199,75.8394294 109.851228,75.6687978 C123.718413,75.5932848 122.616195,53.8088413 113.545255,50.5716446 C96.4603589,44.4744633 19.879995,34.3139408 6.45424804,38.7435119 Z" id="Path-" fill="#FFFFFF" transform="translate(58.872818, 56.664393) rotate(-43.000000) translate(-58.872818, -56.664393) "></path> <path d="M39.5705103,78.003765 L32.8369739,68.4489597 L32.1067692,68.9635551 L30.2974104,72.401117 L31.1733176,73.6440185 L32.6808209,70.7679659 L38.3742176,78.8468257 L39.5705103,78.003765 Z M44.20017,74.8382554 C44.6476302,74.516397 44.7626752,73.8951491 44.4186196,73.4168295 C44.074564,72.9385099 43.4378865,72.8345635 42.9904262,73.1564219 C42.5275362,73.4893789 42.4235899,74.1260565 42.7676454,74.6043761 C43.111701,75.0826957 43.73728,75.1712124 44.20017,74.8382554 Z M55.2110307,66.6632936 L49.6406218,59.2470467 L60.4236797,62.7480266 L61.3051188,62.0859698 L54.2964485,52.7548723 L53.1566565,53.6109803 L58.4873552,60.7080853 L48.1871632,57.3436108 L47.0473712,58.1997188 L54.0560415,67.5308163 L55.2110307,66.6632936 Z M71.4124784,54.3309109 L70.5860503,53.2640971 L65.8830543,56.9073647 L63.4503293,53.7670255 L67.7175845,50.461313 L66.9027962,49.4095248 L62.635541,52.7152372 L60.3774135,49.8002812 L65.0804095,46.1570137 L64.2656213,45.1052254 L58.3906326,49.6563999 L65.5374898,58.8820854 L71.4124784,54.3309109 Z M81.0828718,46.6990774 L80.2430213,45.642798 L75.5864655,49.3452374 L73.1142295,46.2359078 L77.3393473,42.8765059 L76.5113257,41.8351036 L72.2862079,45.1945056 L69.9914052,42.3083336 L74.647961,38.6058941 L73.8199394,37.5644919 L68.0029639,42.189584 L75.2658963,51.3241695 L81.0828718,46.6990774 Z M87.7973261,41.2797367 C90.4485873,39.1174687 90.7451242,35.9324744 88.498768,33.1781086 C86.2524117,30.4237428 83.0728507,30.0737222 80.4215895,32.2359903 L77.5199315,34.6024725 L84.895668,43.646219 L87.7973261,41.2797367 Z M86.9297022,40.2459741 L85.2063825,41.6514483 L79.5244226,34.6845231 L81.2477423,33.2790489 C83.2951051,31.6092974 85.6200737,31.9940825 87.3498881,34.1150914 C89.0797026,36.2361004 88.977065,38.5762226 86.9297022,40.2459741 Z" id="1.NEED" fill="#121211" fill-rule="nonzero"></path></g> <g id="Arrow-Bottom" stroke-linecap="square" fill-rule="nonzero" transform="translate(719.718480, 354.790800) rotate(352.000000) translate(-719.718480, -354.790800) "><use stroke="#FFFFFF" stroke-width="16" xlink:href="#path-1"></use> <use stroke="#121211" stroke-width="2" xlink:href="#path-1"></use></g> <g id="Arrow-Top" stroke-linecap="square" fill-rule="nonzero" transform="translate(643.483968, 159.366898) rotate(99.000000) translate(-643.483968, -159.366898) "><use stroke="#FFFFFF" stroke-width="16" xlink:href="#path-2"></use> <use stroke="#121211" stroke-width="2" xlink:href="#path-2"></use></g> <g id="Data-Points" transform="translate(30.143530, 24.951510)" fill="#121211" fill-rule="nonzero" stroke="#FFFFFF" stroke-width="7"><rect id="Dot" x="279.51992" y="372.863908" width="17" height="17" rx="8.5"></rect> <rect id="Dot" x="981.756194" y="359.45537" width="17" height="17" rx="8.5"></rect> <rect id="Dot" x="884.196575" y="-2.68282045" width="17" height="17" rx="8.5"></rect> <rect id="Dot" x="-3.16743987" y="266.334056" width="17" height="17" rx="8.5"></rect> <rect id="Dot" x="95.4295271" y="16.7717492" width="17" height="17" rx="8.5"></rect> <rect id="Dot" x="398.233068" y="85.2994276" width="17" height="17" rx="8.5"></rect></g></g></g></g></g></svg>